<svg data-name="Layer 2" xmlns="http://www.w3.org/2000/svg" xmlns:xlink="http://www.w3.org/1999/xlink" viewBox="0 0 241.23 65.07"><defs><linearGradient id="a" data-name="新規グラデーションスウォッチ 2" x1="15.71" y1="42.92" x2="256.94" y2="42.92" gradientTransform="translate(-15.71 2.33)" gradientUnits="userSpaceOnUse"><stop offset=".3" stop-color="#e30000"/><stop offset=".73" stop-color="#e00101"/><stop offset="1" stop-color="#d80807"/></linearGradient><linearGradient id="b" data-name="新規グラデーションスウォッチ 2" x1="26.81" y1="20.69" x2="81.4" y2="52.21" xlink:href="#a"/><linearGradient id="c" data-name="新規グラデーションスウォッチ 2" x1="29.47" y1="3.29" x2="49.86" y2="15.06" xlink:href="#a"/></defs><g data-name="レイヤー 5"><path d="M0 28.87h11.27v3.01H3.25v19.5H0V28.87zm103.18 32.77H91.91v-3.01h8.02v-19.5h3.26v22.51zm25.76-7.95c.11-1.19.14-3.15.14-4.87-2.94 1.65-4.79 3.22-4.79 5.25 0 2.38 2.24 2.83 5.74 2.83 2.8 0 6.58-.35 9.63-.91l-.1 3.54c-2.52.31-6.51.59-9.63.59-5.18 0-9.21-1.19-9.21-5.5s4.17-6.96 8.16-9c-.42-1.23-1.54-1.72-2.8-1.72-2.17 0-4.27 1.12-5.74 2.49-1.01.98-2.03 2.24-3.18 3.71l-2.98-2.24c4.06-3.85 6.41-7.21 7.84-10.12h-1.01c-1.44 0-3.85-.07-5.78-.21v-3.26c1.82.25 4.31.39 5.95.39h2.03c.46-1.58.73-3.08.8-4.17l3.61.28c-.21.91-.49 2.24-.98 3.75 3.43-.14 7.07-.46 10.26-1.01v3.22c-3.4.53-7.67.81-11.41.95-.7 1.54-1.61 3.15-2.63 4.52 1.08-.63 3.05-1.02 4.41-1.02 2.17 0 3.96 1.02 4.62 2.94 2.13-1.01 3.92-1.75 5.57-2.49 1.16-.52 2.17-.98 3.29-1.54l1.37 3.22c-.94.28-2.45.84-3.5 1.26-1.79.67-4.03 1.61-6.44 2.73.04 1.96.1 4.73.14 6.37h-3.36zm24.28-14.84c2.8-.88 9.7-3.36 14.81-3.36 5.95 0 10.68 3.46 10.68 9.52 0 8.12-7.91 12.6-19.29 13.2l-1.58-3.68c9.21-.21 16.98-2.94 16.98-9.59 0-3.47-2.49-6.16-6.93-6.16-5.43 0-13.97 3.68-17.12 4.97l-1.58-3.85c1.26-.25 2.73-.67 4.03-1.05zm53-5.78c-.88.67-1.96 1.61-2.66 2.13-2.31 1.96-7.11 5.74-9.56 7.81-2 1.72-2 2.17.07 3.92 2.91 2.42 9.45 7.7 12.85 11.06l-3.15 2.91c-.84-.98-1.82-1.93-2.66-2.84-1.89-2.03-7.49-6.76-10.68-9.45-3.36-2.8-3.01-4.51.25-7.25 2.66-2.24 7.7-6.23 10.05-8.58.8-.84 1.82-1.86 2.27-2.59l3.22 2.87zm31.37 1.33c-.7.46-1.5.98-2.13 1.43-1.79 1.26-5.99 4.94-8.44 6.97 1.4-.46 2.73-.59 4.1-.59 5.81 0 10.12 3.57 10.12 8.4 0 5.57-4.45 9.52-12.22 9.52-4.79 0-8.02-2.17-8.02-5.29 0-2.56 2.35-4.94 5.74-4.94 4.3 0 6.79 2.76 7.28 6.09 2.35-1.05 3.64-2.91 3.64-5.42 0-3.26-3.29-5.57-7.53-5.57-5.53 0-8.82 2.59-12.92 6.93l-2.56-2.59c2.7-2.21 7.04-5.85 9.07-7.53 1.92-1.61 5.92-4.94 7.67-6.44-1.82.07-7.74.32-9.56.42-.88.07-1.79.14-2.55.24l-.11-3.6c.88.1 1.93.17 2.77.17 1.82 0 9.66-.21 11.55-.39 1.19-.14 1.82-.21 2.21-.35l1.89 2.52zm-6.76 22.44c-.28-2.56-1.79-4.24-4.09-4.24-1.44 0-2.49.84-2.49 1.92 0 1.5 1.79 2.45 4.13 2.45.88 0 1.68-.04 2.45-.14z"/><path d="M0 28.87h11.27v3.01H3.25v19.5H0V28.87zm103.18 32.77H91.91v-3.01h8.02v-19.5h3.26v22.51zm25.76-7.95c.11-1.19.14-3.15.14-4.87-2.94 1.65-4.79 3.22-4.79 5.25 0 2.38 2.24 2.83 5.74 2.83 2.8 0 6.58-.35 9.63-.91l-.1 3.54c-2.52.31-6.51.59-9.63.59-5.18 0-9.21-1.19-9.21-5.5s4.17-6.96 8.16-9c-.42-1.23-1.54-1.72-2.8-1.72-2.17 0-4.27 1.12-5.74 2.49-1.01.98-2.03 2.24-3.18 3.71l-2.98-2.24c4.06-3.85 6.41-7.21 7.84-10.12h-1.01c-1.44 0-3.85-.07-5.78-.21v-3.26c1.82.25 4.31.39 5.95.39h2.03c.46-1.58.73-3.08.8-4.17l3.61.28c-.21.91-.49 2.24-.98 3.75 3.43-.14 7.07-.46 10.26-1.01v3.22c-3.4.53-7.67.81-11.41.95-.7 1.54-1.61 3.15-2.63 4.52 1.08-.63 3.05-1.02 4.41-1.02 2.17 0 3.96 1.02 4.62 2.94 2.13-1.01 3.92-1.75 5.57-2.49 1.16-.52 2.17-.98 3.29-1.54l1.37 3.22c-.94.28-2.45.84-3.5 1.26-1.79.67-4.03 1.61-6.44 2.73.04 1.96.1 4.73.14 6.37h-3.36zm24.28-14.84c2.8-.88 9.7-3.36 14.81-3.36 5.95 0 10.68 3.46 10.68 9.52 0 8.12-7.91 12.6-19.29 13.2l-1.58-3.68c9.21-.21 16.98-2.94 16.98-9.59 0-3.47-2.49-6.16-6.93-6.16-5.43 0-13.97 3.68-17.12 4.97l-1.58-3.85c1.26-.25 2.73-.67 4.03-1.05zm53-5.78c-.88.67-1.96 1.61-2.66 2.13-2.31 1.96-7.11 5.74-9.56 7.81-2 1.72-2 2.17.07 3.92 2.91 2.42 9.45 7.7 12.85 11.06l-3.15 2.91c-.84-.98-1.82-1.93-2.66-2.84-1.89-2.03-7.49-6.76-10.68-9.45-3.36-2.8-3.01-4.51.25-7.25 2.66-2.24 7.7-6.23 10.05-8.58.8-.84 1.82-1.86 2.27-2.59l3.22 2.87zm31.37 1.33c-.7.46-1.5.98-2.13 1.43-1.79 1.26-5.99 4.94-8.44 6.97 1.4-.46 2.73-.59 4.1-.59 5.81 0 10.12 3.57 10.12 8.4 0 5.57-4.45 9.52-12.22 9.52-4.79 0-8.02-2.17-8.02-5.29 0-2.56 2.35-4.94 5.74-4.94 4.3 0 6.79 2.76 7.28 6.09 2.35-1.05 3.64-2.91 3.64-5.42 0-3.26-3.29-5.57-7.53-5.57-5.53 0-8.82 2.59-12.92 6.93l-2.56-2.59c2.7-2.21 7.04-5.85 9.07-7.53 1.92-1.61 5.92-4.94 7.67-6.44-1.82.07-7.74.32-9.56.42-.88.07-1.79.14-2.55.24l-.11-3.6c.88.1 1.93.17 2.77.17 1.82 0 9.66-.21 11.55-.39 1.19-.14 1.82-.21 2.21-.35l1.89 2.52zm-6.76 22.44c-.28-2.56-1.79-4.24-4.09-4.24-1.44 0-2.49.84-2.49 1.92 0 1.5 1.79 2.45 4.13 2.45.88 0 1.68-.04 2.45-.14z" fill="url(#a)"/><path d="M35.16 58.35c.08-.2.19-.37.21-.56.14-1.26.27-2.53.4-3.79.06-.6.1-1.2.24-1.78.16-.66.24-1.29.11-1.97-.12-.62-.08-1.27-.12-1.9-.02-.26-.06-.52-.1-.92-.2.24-.31.39-.43.53-1.82 2.28-3.63 4.57-5.45 6.85-.13.16-.21.47-.52.32-.31-.16-.75-.18-.74-.7.01-.4-.1-.71-.59-.79-.16-.03-.31-.29-.41-.48-.14-.28-.28-.5-.62-.58-.48-.11-.75-.48-.88-.92-.38-1.25-.41-2.51.1-3.74.11-.27.29-.54.5-.74 1.44-1.32 2.63-2.85 3.75-4.45 1.07-1.54 2.19-3.04 3.26-4.58.35-.5.62-1.06.91-1.6.24-.43.42-.9.69-1.31.27-.42.4-.82.25-1.33-.07-.24.04-.56.14-.81.14-.35.13-.66-.08-.95-.09-.13-.3-.27-.44-.25-.63.06-1.26.16-1.89.26-.5.08-.87.35-1.16.76-.09.13-.24.29-.38.31-.68.09-1.27.38-1.75.83-.92.89-1.89 1.06-3.05.49-.63-.31-1.33-.46-2-.69-.03-.01-.07-.02-.1-.04-.6-.46-1.24-.88-1.8-1.4-.32-.3-.24-.8-.04-1.15.39-.68.31-1.35.11-2.05-.12-.41-.21-.82-.29-1.24-.13-.64-.09-.79.55-.97.67-.19 1.38-.37 2.07-.37 5.27 0 10.4-.97 15.46-2.35.52-.14 1-.15 1.5.05 1.05.42 2.13.76 3.15 1.23.93.43.96.55 1.42 1.44.27.02.54.03.86.05.14 1.07.55 1.94 1.59 2.43.09-.13.17-.22.22-.33.64-1.33 1.74-1.87 3.17-1.91.74-.02 1.44.03 2.13.31.65.27 1.3.56 1.97.78 1.15.38 2.31.76 3.49 1.03.43.1.94-.16 1.4-.13 1.26.1 2.37-.63 3.62-.62.14 0 .33-.15.42-.28.35-.49.71-.97 1-1.49 1.58-2.88 3.11-5.79 4.73-8.65.88-1.56 1.91-3.05 2.87-4.57.05.01.09.03.14.04-.14-.24-.28-.48-.48-.83.23-.21.47-.44.73-.63.11-.08.3-.11.42-.07.52.17 1.06.31 1.53.57 1.46.79 2.89 1.63 4.34 2.45.24.14.28.31.31.59.06.62.25 1.23.41 1.95-.8.72-1.44 1.83-2.68 2.26-.5.17-.88.52-1.06 1.04-.04.11-.11.24-.21.28-1.35.65-2.02 1.88-2.64 3.14-.12.24-.19.47-.5.55-.15.04-.29.21-.38.35-.51.82-1.01 1.64-1.52 2.46.03.05.05.11.08.16.36.04.71.09 1.07.13.05 0 .12-.01.14-.05.59-.9 1.52-.6 2.29-.52 1.17.12 2.32.45 3.48.69.07.01.16.02.2.06.41.45.88.79 1.45 1 .11.04.1.37.18.56.17.41.38.8.55 1.2.3.68.11 1.07-.58 1.27-.8.23-1.6.44-2.38.72-.68.25-1.34.26-2.03.15-.62-.1-1.21-.07-1.82.12-.93.28-1.9.42-2.83.68-.69.2-1.35.5-2.02.76-.05.02-.09.08-.14.08-.81.07-1.21.72-1.74 1.19-.24.21-.46.46-.73.61-1.43.78-2.39 2.07-3.51 3.19-.29.29-.56.59-.83.9-.25.3-.49.6-.7.93-.28.44-.28.83.06 1.3.43.59.73 1.28 1.11 1.91.08.14.27.3.4.3.9-.05 1.79-.12 2.68-.23 1.31-.16 2.62-.35 3.93-.53.53-.07 1.13.02 1.56-.22.42-.24.62-.84.99-1.2.46-.45.99-.85 1.52-1.21.21-.14.53-.14.8-.2.49-.12.99-.24 1.48-.35.34-.07.7-.1 1.04-.2.66-.2 1.28-.05 1.83.28 1.11.68 2.3 1.14 3.53 1.53.84.27 1.13 1.07 1.48 1.77.06.12-.02.36-.1.5-.52.92-1.04 1.84-1.58 2.75-.08.13-.23.28-.36.29-.63.06-.93.54-1.25.98-.24.32-.48.67-.62 1.04-.62 1.66-1.62 3.1-2.52 4.59-.16.27-.3.56-.4.86-.29.84-.83 1.49-1.54 1.98-1.9 1.32-4 2.09-6.32 2.18-.25 0-.54-.08-.7.23-.03.05-.17.07-.24.05-.48-.13-.66.13-.8.53-.24.66-.52 1.31-.79 1.97-.28 0-.54-.06-.76.01-.92.28-1.72 0-2.45-.5-.47-.31-.87-.72-1.32-1.06-.51-.4-1.05-.77-1.57-1.16-.21-.16-.46-.31-.59-.52-1.25-2.15-2.29-4.4-2.78-6.84-.17-.84-.52-1.53-.88-2.41-.41.49-.79.84-1.06 1.26-.9 1.42-1.83 2.82-2.63 4.29-1.12 2.07-2.13 4.19-3.17 6.29-.13.27-.21.56-.3.85-.22.71-1.31 1.51-2.05 1.48-.11 0-.22-.08-.33-.14-.17-.09-.33-.27-.5-.28-.59-.04-.79-.47-1.01-.9-.52-1.03-.71-2.14-.67-3.29.01-.42.09-.85.48-1.13.07-.05.15-.18.13-.26-.07-.48.24-.73.52-1.03.77-.83 1.52-1.68 2.27-2.52.09-.1.18-.22.24-.35 2.14-4.35 4.95-8.28 7.62-12.29.61-.91 1.22-1.82 1.84-2.74-.43-.41-.96-.54-1.49-.68-.16-.04-.34-.12-.44-.24-1.34-1.59-2.9-2.97-4.73-3.87-1.61-.79-2.26-2.12-2.9-3.57-.06-.14-.11-.3-.17-.44-.01-.03-.05-.05-.1-.1-.14.09-.29.17-.44.27-1.1.71-2.17 1.46-3.29 2.12-.96.57-1.69 1.32-2.26 2.26-.2.33-.42.66-.57 1.02-.75 1.82-1.9 3.38-3.13 4.9-.29.36-.29.62-.02.97.24.31.57.6.44 1.08-.02.09.09.22.16.32.35.49.71.97 1.07 1.45.57.75 1.35 1.04 2.25.83.58-.14 1.16-.35 1.67-.65.91-.54 1.77-1.17 2.65-1.76.17-.12.33-.24.61-.44 0 .27.03.44 0 .59-.08.34-.16.69-.29 1.02-.06.15-.21.34-.36.38-.51.16-.85.5-1.12.92-.21.33-.4.67-.59 1.01-.32.57-.66 1.11-1.23 1.49-.41.28-.83.63-.76 1.15-.83.19-1.61.37-2.4.53-.2.04-.42.01-.63-.02-.66-.11-1.31-.25-2.03-.38-.04.22-.12.4-.11.58.04 1.41.03 2.83.15 4.23.14 1.62.35 3.23.6 4.84.14.87.41 1.71.67 2.56.25.82.45 1.63.36 2.5-.07.69-.92 1.14-1.52.8-.81-.47-1.64-.91-2.42-1.42-.35-.23-.71-.57-.88-.94-.42-.93-.77-1.9-1.08-2.87-.07-.22.08-.54.2-.77.17-.31.2-.53-.14-.6zm39.23-10.72h-.3c-1.5.15-2.97.5-4.34 1.11-.94.42-1.84.68-2.82.22-.01 0-.03.01-.08.03-.02.06-.05.14-.05.23-.04 1.68.16 3.31.87 4.86.12.26.18.55.29.89.58.13 1.23.28 1.89.4.34.07.7.16 1.04.12.84-.08 1.68-.23 2.51-.36.16-.03.44 0 .33-.33 0-.03.12-.13.19-.16.5-.16.67-.51.62-1.02-.01-.14.03-.28.04-.42.05-.7.16-1.41.14-2.11-.02-.86-.14-1.72-.23-2.57l-.09-.9z" fill="url(#b)"/><path d="M46.84 19.77c-.76-.9-1.8-1.08-2.83-1.26-.82-.14-1.58-.44-2.22-.95-1.25-1-2.48-2.04-3.69-3.09-.31-.27-.54-.65-.8-.98-.08-.09-.15-.26-.24-.27-.57-.04-.7-.44-.89-.88-.13-.31-.42-.56-.69-.79-.55-.46-.98-1-1.35-1.61-.63-1.04-1.23-2.14-2.06-3.01-.56-.6-.68-1.25-.89-1.93-.11-.35-.23-.71-.31-1.07-.2-.94.04-1.89.03-2.83 0-.71.66-1.14 1.51-1.1 1.04.05 2.07.22 3.1.35.3.04.59.11.88.17 1.04.19 1.99.54 2.78 1.31.66.64 1.42 1.17 2.1 1.78.54.48 1.03 1.01 1.55 1.51.3.3.6.6.92.88 1.76 1.54 3.14 3.39 4.35 5.36.26.43.44.93.56 1.42.09.36 0 .75 0 1.13 0 .34-.04.72.08 1.02.35.88.21 1.66-.23 2.47-.45.82-.91 1.63-1.66 2.37z" fill="url(#c)"/></g></svg>