<?xml version="1.0" encoding="UTF-8"?>
<svg id="Layer_2" data-name="Layer 2" xmlns="http://www.w3.org/2000/svg" viewBox="0 0 46.16 41.2">
  <defs>
    <style>
      .cls-1 {
        fill: none;
        stroke: #00c4d1;
        stroke-miterlimit: 10;
      }

      .cls-2 {
        fill: #00c4d1;
      }
    </style>
  </defs>
  <g id="POPUP">
    <g>
      <path class="cls-2" d="M24.67,26.13c-.11,.49-.16,.92-.15,1.3,0,.38,.04,.69,.11,.95,.07,.26,.2,.48,.4,.67,.2,.18,.39,.32,.56,.42,.18,.1,.44,.18,.78,.25,.34,.07,.62,.11,.85,.13,.23,.02,.54,.04,.95,.05,.18,.12,.23,.36,.16,.72-.07,.36-.22,.59-.45,.72-4.57-.05-6.89-.08-6.98-.08l-7.1,.08c-.18-.12-.23-.36-.16-.71s.22-.59,.45-.73c.59-.03,1.05-.06,1.38-.09,.33-.03,.74-.13,1.21-.28s.84-.35,1.12-.6c.27-.25,.54-.61,.81-1.08,.27-.47,.47-1.04,.6-1.71l2.81-13.12c.11-.52,.18-.93,.21-1.24,.03-.31,.03-.54,0-.69s-.1-.24-.17-.28c-.08-.03-.19-.05-.36-.05-1.27,0-2.8,.35-4.58,1.04-.49-.41-.67-1.01-.53-1.8,.89-.34,2.48-.93,4.78-1.77,2.3-.84,3.99-1.48,5.06-1.93,.97-.42,1.71-.63,2.23-.61,.48,0,.66,.24,.55,.72-.56,1.6-1,3.13-1.31,4.6l-3.21,15.12Z"/>
      <polyline class="cls-1" points=".5 11.17 .5 .5 10.9 .5"/>
      <polyline class="cls-1" points="45.66 30.03 45.66 40.7 35.27 40.7"/>
    </g>
  </g>
</svg>