<?xml version="1.0" encoding="UTF-8"?>
<svg id="Layer_2" data-name="Layer 2" xmlns="http://www.w3.org/2000/svg" viewBox="0 0 29 23.28">
  <defs>
    <style>
      .cls-1 {
        fill: none;
        stroke: #8ec43c;
        stroke-linecap: round;
        stroke-linejoin: round;
      }
    </style>
  </defs>
  <g id="Design">
    <g id="icon">
      <path class="cls-1" d="M2.65,9.54l-1.21,1.7c-.12,.17-.19,.37-.19,.58v5.27c0,.55,.45,1,1,1H14.45"/>
      <path class="cls-1" d="M14.45,.5H7.36c-.37,0-.71,.2-.88,.53l-2.32,4.32"/>
      <path class="cls-1" d="M26.24,9.54l1.21,1.7c.12,.17,.19,.37,.19,.58v5.27c0,.55-.45,1-1,1H14.45"/>
      <path class="cls-1" d="M14.45,.5h7.08c.37,0,.71,.2,.88,.53l2.43,4.52"/>
      <path class="cls-1" d="M.5,5.34H3.66c.31,0,.61,.15,.8,.4l1.61,2.13c.19,.25,.48,.4,.8,.4h15.46c.32,0,.62-.15,.81-.41l1.4-1.91c.19-.26,.49-.41,.81-.41h3.16"/>
      <line class="cls-1" x1="5.65" y1="13.69" x2="7.12" y2="13.69"/>
      <line class="cls-1" x1="21.77" y1="13.69" x2="23.24" y2="13.69"/>
      <path class="cls-1" d="M7.85,19.85h0c0,1.61-.99,2.93-2.2,2.93h-1.47c-1.21,0-2.2-1.32-2.2-2.93h0"/>
      <path class="cls-1" d="M26.9,19.85h0c0,1.61-.99,2.93-2.2,2.93h-1.47c-1.21,0-2.2-1.32-2.2-2.93h0"/>
    </g>
  </g>
</svg>