<?xml version="1.0" encoding="UTF-8"?>
<svg id="Layer_2" data-name="Layer 2" xmlns="http://www.w3.org/2000/svg" viewBox="0 0 44.28 3">
  <defs>
    <style>
      .cls-1 {
        fill: #ffda4d;
      }
    </style>
  </defs>
  <g id="design">
    <g>
      <path class="cls-1" d="m1.5,3c-.09,0-.19-.01-.29-.03-.1-.02-.19-.05-.28-.09-.09-.03-.18-.08-.26-.13-.08-.06-.16-.12-.23-.19-.28-.28-.44-.67-.44-1.06,0-.1.01-.2.03-.3.02-.09.05-.19.09-.28s.08-.17.14-.26c.05-.08.11-.16.18-.22.07-.07.15-.14.23-.19.08-.05.17-.1.26-.14s.18-.06.28-.08c.49-.1,1,.06,1.35.41.07.06.14.14.19.22.05.09.1.17.14.26s.06.19.08.28c.02.1.03.2.03.3,0,.39-.16.78-.44,1.06-.28.28-.66.44-1.06.44Z"/>
      <path class="cls-1" d="m30.96,1.5c0-.83.67-1.5,1.5-1.5h0c.83,0,1.5.67,1.5,1.5h0c0,.83-.67,1.5-1.5,1.5h0c-.83,0-1.5-.67-1.5-1.5Zm-10.32,0c0-.83.67-1.5,1.5-1.5h0c.83,0,1.5.67,1.5,1.5h0c0,.83-.67,1.5-1.5,1.5h0c-.83,0-1.5-.67-1.5-1.5Zm-10.32,0c0-.83.67-1.5,1.5-1.5h0c.83,0,1.5.67,1.5,1.5h0c0,.83-.67,1.5-1.5,1.5h0c-.83,0-1.5-.67-1.5-1.5Z"/>
      <path class="cls-1" d="m42.78,3c-.4,0-.79-.16-1.06-.44-.28-.28-.44-.67-.44-1.06s.16-.78.44-1.06c.56-.56,1.56-.56,2.12,0,.28.28.44.66.44,1.06,0,.09-.01.19-.03.29-.02.1-.05.19-.09.28-.04.09-.08.18-.14.26-.05.08-.11.16-.18.23-.07.07-.15.13-.23.18-.08.06-.17.1-.26.14-.09.04-.18.07-.28.09s-.2.03-.29.03Z"/>
    </g>
  </g>
</svg>