<?xml version="1.0" encoding="UTF-8"?>
<svg id="Layer_2" data-name="Layer 2" xmlns="http://www.w3.org/2000/svg" viewBox="0 0 33.67 27">
  <defs>
    <style>
      .cls-1 {
        fill: none;
        stroke: #fff;
        stroke-linecap: round;
        stroke-miterlimit: 10;
      }
    </style>
  </defs>
  <g id="Design">
    <g id="icon">
      <path class="cls-1" d="M3.01,11.05l-1.41,1.98c-.14,.2-.22,.43-.22,.68v6.15c0,.64,.52,1.17,1.17,1.17h14.22"/>
      <path class="cls-1" d="M16.77,.5H8.51c-.43,0-.82,.24-1.03,.61l-2.71,5.04"/>
      <path class="cls-1" d="M30.54,11.05l1.41,1.98c.14,.2,.22,.43,.22,.68v6.15c0,.64-.52,1.17-1.17,1.17h-14.22"/>
      <path class="cls-1" d="M16.77,.5h8.26c.43,0,.82,.24,1.03,.61l2.83,5.28"/>
      <path class="cls-1" d="M.5,6.15h3.69c.37,0,.71,.17,.93,.47l1.87,2.49c.22,.29,.57,.47,.93,.47H25.97c.37,0,.72-.18,.94-.48l1.64-2.23c.22-.3,.57-.48,.94-.48h3.68"/>
      <line class="cls-1" x1="6.51" y1="15.89" x2="8.22" y2="15.89"/>
      <line class="cls-1" x1="25.32" y1="15.89" x2="27.03" y2="15.89"/>
      <path class="cls-1" d="M9.08,23.08h0c0,1.88-1.15,3.42-2.57,3.42h-1.71c-1.41,0-2.57-1.54-2.57-3.42h0"/>
      <path class="cls-1" d="M31.31,23.08h0c0,1.88-1.15,3.42-2.57,3.42h-1.71c-1.41,0-2.57-1.54-2.57-3.42h0"/>
    </g>
  </g>
</svg>