<svg xmlns="http://www.w3.org/2000/svg" viewBox="0 0 46.9 40"><defs><style>.cls-1{fill:#fff;}</style></defs><g id="Layer_2" data-name="Layer 2"><g id="Design"><path class="cls-1" d="M39.51,1.63A13.84,13.84,0,0,0,29,.6a12.76,12.76,0,0,0-7.49,6.67A16,16,0,0,0,20.8,8.9a.42.42,0,0,1-.73.1,10.46,10.46,0,0,0-8.45-4.38A10.93,10.93,0,0,0,2.69,9,14.83,14.83,0,0,0,.59,21.72c2.35,8.37,11.13,14.85,18.58,18.12a1.69,1.69,0,0,0,.73.16,1.83,1.83,0,0,0,1.75-1.28,1.61,1.61,0,0,0,.07-.37.34.34,0,0,0,0-.1V30.64a1.51,1.51,0,0,1,3,0v7.53a1.64,1.64,0,0,0,1.63,1.64h0a1.65,1.65,0,0,0,1.64-1.64V30.64a1.51,1.51,0,0,1,3,0v7.53a1.64,1.64,0,0,0,1.64,1.64h0a1.65,1.65,0,0,0,1.64-1.64V30.64a1.51,1.51,0,0,1,3,0v7.53a1.64,1.64,0,0,0,3.28,0V30.64a4.78,4.78,0,0,0-7.94-3.56,4.78,4.78,0,0,0-6.31,0,4.78,4.78,0,0,0-7.94,3.56v4.81a38.39,38.39,0,0,1-8.19-5.6,20.41,20.41,0,0,1-6.16-9.12,11.29,11.29,0,0,1,1.5-9.57,7.24,7.24,0,0,1,6-2.88,7,7,0,0,1,5.81,3.36C19,13.89,22.3,15,24.1,10.52c.1-.26.42-1.09.68-1.6a9.05,9.05,0,0,1,5.34-4.83,10.17,10.17,0,0,1,7.71.79,9.54,9.54,0,0,1,4.8,5.46,12.31,12.31,0,0,1-2.08,11.55,1.84,1.84,0,0,0,1.41,3,1.83,1.83,0,0,0,1.43-.69A15.9,15.9,0,0,0,46.12,9.25,13,13,0,0,0,39.51,1.63Z"/></g></g></svg>