<?xml version="1.0" encoding="UTF-8"?>
<svg id="Layer_2" data-name="Layer 2" xmlns="http://www.w3.org/2000/svg" viewBox="0 0 20.05 33">
  <defs>
    <style>
      .cls-1, .cls-2 {
        fill: none;
        stroke: #fff;
        stroke-linecap: round;
        stroke-miterlimit: 10;
      }

      .cls-2 {
        stroke-width: .5px;
      }
    </style>
  </defs>
  <g id="Design">
    <g>
      <g>
        <path class="cls-1" d="M4.31,.5h12.39c1.58,0,2.86,1.28,2.86,2.86V29.64c0,1.58-1.28,2.86-2.86,2.86H3.36c-1.58,0-2.86-1.28-2.86-2.86V3.36C.5,1.78,1.78,.5,3.36,.5h.95"/>
        <path class="cls-1" d="M15.74,.5l-1.7,3.28c-.17,.33-.51,.53-.88,.53H6.89c-.37,0-.71-.2-.88-.53L4.31,.5"/>
      </g>
      <path class="cls-2" d="M14.74,14.13c1.79,2.6,1.13,6.16-1.47,7.95-2.6,1.79-6.16,1.13-7.95-1.47-1.79-2.6-1.13-6.16,1.47-7.95,1.95-1.34,4.53-1.34,6.48,0"/>
      <polyline class="cls-2" points="9.99 15.14 9.99 17.27 11.03 18.31"/>
      <line class="cls-2" x1="9.99" y1="13.12" x2="9.99" y2="13.12"/>
      <line class="cls-2" x1="14.06" y1="13.33" x2="14.06" y2="13.33"/>
      <line class="cls-2" x1="9.99" y1="21.43" x2="9.99" y2="21.43"/>
      <line class="cls-2" x1="14.15" y1="17.27" x2="14.15" y2="17.27"/>
      <line class="cls-2" x1="5.83" y1="17.27" x2="5.83" y2="17.27"/>
    </g>
  </g>
</svg>