<svg data-name="Layer 2" xmlns="http://www.w3.org/2000/svg" viewBox="0 0 135.66 140.85"><path d="M26.47 126.29c.17-.42.41-.81.45-1.21.31-2.73.57-5.47.87-8.21.14-1.29.22-2.6.52-3.86.34-1.43.52-2.79.23-4.27-.26-1.34-.18-2.74-.26-4.12-.04-.57-.13-1.13-.23-2-.43.53-.68.83-.92 1.14-3.93 4.94-7.86 9.89-11.8 14.82-.27.34-.45 1.03-1.13.68-.67-.34-1.62-.38-1.6-1.51.02-.87-.21-1.54-1.28-1.71-.35-.06-.68-.63-.89-1.04-.31-.6-.6-1.08-1.34-1.25-1.03-.23-1.61-1.05-1.9-1.99-.81-2.71-.89-5.43.22-8.08.24-.58.62-1.17 1.08-1.59 3.12-2.86 5.7-6.17 8.11-9.64 2.32-3.33 4.73-6.59 7.05-9.92.76-1.09 1.34-2.3 1.98-3.46.51-.94.92-1.94 1.49-2.84.59-.92.87-1.77.53-2.89-.16-.51.09-1.2.3-1.75.3-.75.28-1.43-.18-2.05-.2-.28-.64-.57-.94-.55-1.37.13-2.73.35-4.09.57-1.08.17-1.89.75-2.52 1.65-.2.28-.52.63-.83.67-1.46.2-2.76.82-3.78 1.8-2 1.92-4.08 2.3-6.6 1.07-1.36-.67-2.88-1-4.33-1.48-.07-.02-.16-.04-.21-.08-1.31-.99-2.69-1.9-3.89-3.02-.69-.65-.52-1.72-.08-2.49.84-1.48.66-2.92.23-4.43-.25-.88-.45-1.78-.64-2.68-.29-1.38-.18-1.72 1.2-2.1 1.46-.41 2.99-.8 4.49-.8 11.42 0 22.51-2.11 33.46-5.08 1.12-.3 2.16-.33 3.24.1 2.26.9 4.6 1.64 6.81 2.67 2.02.94 2.09 1.19 3.07 3.12.57.03 1.18.07 1.86.11.3 2.31 1.19 4.21 3.44 5.26.19-.28.36-.48.48-.71 1.38-2.88 3.77-4.05 6.86-4.13 1.59-.05 3.12.06 4.61.68 1.41.59 2.81 1.22 4.26 1.69 2.5.82 5.01 1.64 7.56 2.24.93.22 2.03-.35 3.02-.27 2.74.22 5.14-1.36 7.83-1.34.31 0 .7-.33.91-.61.76-1.05 1.54-2.1 2.16-3.24 3.42-6.23 6.73-12.54 10.23-18.73 1.91-3.39 4.13-6.6 6.22-9.89.1.03.2.06.3.1-.3-.52-.6-1.04-1.04-1.79.5-.45 1.01-.96 1.59-1.37.23-.17.65-.24.92-.15 1.12.36 2.29.67 3.31 1.23 3.16 1.71 6.26 3.53 9.39 5.3.52.29.61.67.67 1.28.14 1.34.54 2.65.89 4.23-1.73 1.56-3.11 3.97-5.81 4.9-1.08.37-1.9 1.12-2.29 2.26-.08.23-.25.52-.45.61-2.93 1.4-4.37 4.06-5.71 6.79-.26.53-.42 1.01-1.09 1.18-.32.08-.62.46-.82.77-1.11 1.76-2.19 3.55-3.28 5.33.06.12.11.23.17.35.77.1 1.54.2 2.31.28.1.01.26-.03.31-.11 1.28-1.96 3.3-1.3 4.96-1.13 2.53.25 5.02.97 7.53 1.49.15.03.34.04.43.13.88.97 1.9 1.7 3.15 2.17.25.09.22.81.39 1.21.38.88.81 1.73 1.2 2.61.64 1.47.24 2.31-1.26 2.75-1.72.51-3.47.94-5.16 1.56-1.46.54-2.91.56-4.4.31a8.418 8.418 0 00-3.95.26c-2.01.61-4.11.9-6.13 1.48-1.49.43-2.92 1.09-4.37 1.65-.11.04-.19.16-.29.17-1.75.15-2.62 1.56-3.77 2.58-.51.46-.99 1-1.58 1.32-3.09 1.7-5.17 4.49-7.59 6.91-.62.62-1.22 1.27-1.79 1.94-.54.64-1.06 1.31-1.52 2.01-.62.94-.61 1.8.13 2.81.93 1.28 1.58 2.77 2.41 4.14.18.29.59.66.88.64 1.94-.11 3.88-.27 5.8-.5 2.84-.34 5.68-.76 8.52-1.14 1.14-.15 2.45.04 3.37-.48.91-.51 1.34-1.81 2.15-2.59 1-.97 2.14-1.83 3.3-2.61.46-.31 1.15-.3 1.73-.43 1.07-.25 2.14-.52 3.21-.75.75-.16 1.52-.21 2.25-.43 1.44-.44 2.76-.12 3.96.61 2.4 1.47 4.98 2.46 7.65 3.31 1.82.58 2.44 2.31 3.2 3.84.13.26-.05.77-.22 1.08-1.12 2-2.26 3.99-3.43 5.96-.16.28-.49.6-.77.63-1.37.14-2.01 1.18-2.7 2.12-.52.7-1.04 1.45-1.34 2.26-1.33 3.59-3.5 6.7-5.45 9.94-.35.58-.64 1.21-.86 1.85-.63 1.81-1.79 3.22-3.33 4.28-4.11 2.86-8.65 4.52-13.69 4.71-.55.02-1.16-.18-1.53.5-.05.1-.36.15-.52.1-1.04-.29-1.43.29-1.74 1.15-.52 1.43-1.13 2.83-1.7 4.26-.61 0-1.17-.12-1.64.02-1.99.61-3.71-.01-5.31-1.09-1.01-.68-1.89-1.56-2.85-2.3-1.11-.86-2.27-1.66-3.39-2.51-.45-.34-1-.66-1.27-1.12-2.7-4.65-4.96-9.52-6.01-14.8-.36-1.82-1.12-3.32-1.9-5.21-.9 1.05-1.72 1.82-2.3 2.73-1.95 3.06-3.96 6.1-5.68 9.3-2.41 4.47-4.6 9.07-6.86 13.62-.29.58-.46 1.21-.65 1.83-.47 1.54-2.83 3.28-4.44 3.21-.24 0-.49-.18-.71-.3-.37-.2-.72-.57-1.09-.6-1.27-.09-1.71-1.01-2.18-1.94-1.13-2.24-1.53-4.64-1.44-7.12.03-.92.2-1.83 1.04-2.45.16-.12.32-.39.29-.57-.15-1.03.52-1.58 1.13-2.23 1.67-1.79 3.29-3.63 4.92-5.45.2-.23.39-.48.52-.75 4.63-9.41 10.71-17.92 16.49-26.61 1.31-1.97 2.64-3.94 3.98-5.94-.94-.89-2.08-1.17-3.22-1.47-.34-.09-.73-.26-.94-.51-2.9-3.43-6.28-6.43-10.24-8.38-3.48-1.71-4.89-4.59-6.28-7.72-.14-.31-.24-.64-.36-.96-.03-.06-.1-.11-.21-.22-.31.19-.64.37-.95.57-2.37 1.54-4.7 3.15-7.12 4.6-2.07 1.23-3.66 2.87-4.89 4.9-.43.72-.91 1.43-1.23 2.2-1.62 3.94-4.12 7.33-6.77 10.6-.63.78-.62 1.34-.05 2.09.51.67 1.22 1.3.96 2.34-.05.19.2.48.35.69.76 1.05 1.53 2.1 2.32 3.14 1.24 1.63 2.91 2.25 4.86 1.79 1.25-.3 2.5-.77 3.6-1.42 1.97-1.17 3.83-2.53 5.73-3.81.37-.25.72-.53 1.31-.96 0 .59.06.95-.01 1.28-.16.75-.34 1.5-.62 2.2-.13.34-.45.73-.78.83-1.09.35-1.84 1.07-2.43 1.99-.45.71-.86 1.44-1.28 2.18-.7 1.23-1.43 2.39-2.67 3.22-.9.6-1.79 1.35-1.65 2.48-1.79.4-3.49.8-5.2 1.15-.43.09-.91.03-1.36-.05-1.43-.25-2.84-.53-4.39-.83-.1.47-.26.86-.25 1.25.08 3.06.07 6.12.32 9.17.29 3.5.75 7 1.3 10.47.3 1.87.89 3.71 1.45 5.53.55 1.77.98 3.54.78 5.41-.16 1.5-1.99 2.46-3.28 1.72-1.76-1.01-3.55-1.97-5.24-3.08-.76-.5-1.53-1.23-1.9-2.04-.91-2.01-1.66-4.11-2.33-6.21-.15-.47.17-1.17.44-1.67.36-.68.44-1.14-.3-1.29zm84.91-23.21c-.29 0-.47-.02-.65 0-3.26.33-6.43 1.08-9.4 2.41-2.04.91-3.98 1.47-6.11.49-.02-.01-.07.03-.17.07-.03.13-.11.31-.12.49-.08 3.63.34 7.17 1.87 10.52.26.56.38 1.18.62 1.92 1.26.27 2.67.6 4.09.87.74.14 1.52.34 2.25.27 1.82-.18 3.63-.49 5.44-.79.34-.06.95.02.72-.71-.02-.07.25-.28.42-.34 1.08-.35 1.45-1.11 1.34-2.2-.03-.3.07-.61.09-.91.11-1.52.34-3.05.3-4.57-.05-1.86-.31-3.71-.49-5.57-.06-.64-.13-1.27-.2-1.94zm-59.65-60.3c-1.65-1.94-3.9-2.33-6.12-2.72-1.78-.31-3.42-.94-4.8-2.05-2.71-2.17-5.37-4.42-7.99-6.7-.68-.59-1.16-1.41-1.74-2.12-.17-.21-.33-.56-.51-.58-1.23-.09-1.52-.96-1.92-1.91-.28-.66-.92-1.22-1.5-1.7-1.2-.99-2.11-2.16-2.92-3.49-1.37-2.25-2.67-4.63-4.45-6.52-1.22-1.29-1.48-2.7-1.93-4.17-.23-.77-.51-1.53-.67-2.31-.43-2.04.09-4.08.06-6.13C17.22.84 18.68-.09 20.5 0c2.24.12 4.48.48 6.71.76.64.08 1.27.25 1.91.36 2.26.4 4.3 1.17 6.01 2.83 1.42 1.38 3.07 2.53 4.56 3.85 1.16 1.03 2.23 2.18 3.35 3.27.66.64 1.3 1.3 1.99 1.9 3.81 3.32 6.79 7.33 9.41 11.61.57.93.96 2.01 1.22 3.08.19.77-.01 1.63 0 2.44.01.74-.09 1.55.17 2.21.75 1.9.47 3.6-.49 5.35-.98 1.78-1.96 3.54-3.59 5.12z" fill="#fff"/></svg>