<svg id="Layer_2" data-name="Layer 2" xmlns="http://www.w3.org/2000/svg" viewBox="0 0 15.16 15.3"><defs><style>.cls-1{fill:#ffda4d}</style></defs><g id="design"><path class="cls-1" d="M6.81 8.85a.47.47 0 01-.35-.15c-.2-.2-.2-.51 0-.71L13.87.58c.2-.2.51-.2.71 0s.2.51 0 .71L7.17 8.7c-.1.1-.23.15-.35.15z"/><path class="cls-1" d="M14.11 4.94h-.07a.51.51 0 01-.43-.56l.45-3.29-3.29.45a.485.485 0 01-.56-.43.49.49 0 01.43-.56L14.59 0a.496.496 0 01.56.56l-.54 3.94c-.03.25-.25.43-.49.43zM13 13.65c0 .36-.29.65-.65.65H1.65c-.36 0-.65-.29-.65-.65V2.95c0-.36.29-.65.65-.65H8v-1H1.65C.74 1.3 0 2.04 0 2.95v10.7c0 .91.74 1.65 1.65 1.65h10.7c.91 0 1.65-.74 1.65-1.65V7.3h-1v6.35z"/></g></svg>