<svg data-name="Layer 2" xmlns="http://www.w3.org/2000/svg" viewBox="0 0 200.38 60.73"><defs><filter id="a" filterUnits="userSpaceOnUse"><feOffset/><feGaussianBlur result="blur" stdDeviation="5"/><feFlood flood-color="#000" flood-opacity=".4"/><feComposite in2="blur" operator="in"/><feComposite in="SourceGraphic"/></filter></defs><g filter="url(#a)" data-name="レイヤー 5"><path d="M11.53 26.17H3.61v30.4H0V22.6h11.53v3.57zm85.94 33.08H85.94v-3.57h7.92v-30.4h3.61v33.97zm26.33-19.07c-2.14.44-4 .78-5.56 1-.51.9-1.29 2.01-1.99 2.91-.05.05-.05.07-.02.07.05 0 .1-.02.15-.07 1.12-.8 2.06-1 2.98-1 1.38.02 2.38.92 2.84 2.38 2.26-.99 4.46-1.77 5.73-2.31l1.72 2.09c.05.07.07.12.07.17 0 .1-.15.12-.32.15-2.26.39-4.78 1.21-6.96 2.21-.05 1.09-.15 3.08-.17 4.08l-2.38.22c.02-.8.1-2.11.15-3.15-1.17.66-3.06 1.87-3.06 3.25 0 .58.27 1.99 3.83 1.99 1.63 0 3.76-.46 5.8-1.04 0 0-.44 1.92-.46 2.65 0 .12-.05.15-.15.17-1.21.32-3.23.61-5.1.61-3.76 0-6.29-1.58-6.29-4.22 0-2.28 2.23-4.17 5.44-5.85-.12-1.17-.58-1.63-1.5-1.63-1.65 0-4.08 2.57-5.39 4.63l-2.33-.75c-.12-.02-.17-.07-.17-.12s.02-.1.07-.17c.63-.7 1.55-1.67 2.09-2.38 1.07-1.46 2.11-3.11 2.91-4.56-.32.02-.61.05-.87.05-.27.02-.53.02-.78.02-.95 0-1.7-.12-2.35-.44l-.24-2.23v-.07c0-.07.02-.1.07-.1s.1.02.17.05c.95.44 2.01.66 3.11.63.51 0 1.12-.05 1.82-.12.39-.95.75-2.09 1.02-3.15 0 0 3.03.36 3.03.83 0 .19-.29.34-.8.36-.17.41-.44 1.02-.7 1.6 1.41-.24 2.96-.61 4.66-1.07l-.07 2.33zm11.74 3.59s-.07-.1-.07-.12c0-.05.05-.07.15-.1 2.16-.36 4.54-1.48 6.84-2.28 1.87-.66 3.93-1.19 6.24-1.19 5.1 0 6.84 3.18 6.84 6.04 0 5.68-6.94 8.66-12.96 8.78-.12 0-.15 0-.22-.1-.49-.78-2.35-2.45-2.35-2.45.32 0 .63.02.95.02 6.41 0 11.84-2.26 11.84-6.31 0-.46-.05-3.71-4.2-3.71-1.94 0-3.64.49-5.29 1.19-2.14.92-4.08 2.14-5.87 2.62l-1.89-2.4zm37.51 13.05s-.07.02-.1.02-.05-.02-.1-.1c-1.82-3.18-4.93-6.09-7.64-8.76-.73-.7-1.07-1.48-1.07-2.26 0-.85.41-1.72 1.19-2.5 2.33-2.35 5.56-4.42 7.45-7.09.05-.07.1-.1.12-.1.1 0 2.57 2.11 2.57 2.65 0 .12-.1.19-.24.19-.12 0-.32-.05-.51-.15-2.01 1.75-5.24 3.91-6.99 5.58-.58.56-.87 1.02-.87 1.46s.32.87.87 1.38c2.52 2.21 6.6 5.75 8.25 8.54l-2.94 1.12zm13.03-18.08s-.02-.07-.02-.1c0-.05.05-.1.12-.1h.05c.53.07 1.12.12 1.7.12 2.14 0 4.61-.46 6.72-1.19.27-.1.36-.27.51-.27.17 0 2.23 1.43 2.23 1.8 0 .15-.19.22-.53.34-2.04 1.89-4.54 4.17-6.43 5.9l-.12.12.02.02c.05 0 .12-.05.17-.05 1.21-.49 2.52-.75 3.76-.75 3.25 0 6.12 1.82 6.12 4.88 0 3.74-3.91 6.77-8.44 6.77-3.13 0-5.78-1.31-5.78-3.47 0-1.67 1.58-2.65 3.42-2.65 2.57 0 4.22 1.6 4.22 3.47v.1c2.77-.75 3.88-2.74 3.88-4.08 0-2.98-3.32-3.01-3.91-3.01-2.45 0-5.68.83-8.4 4.22-.05.05-.1.07-.12.07-.05 0-.07 0-.12-.02l-2.16-1.26s-.07-.07-.07-.1c0-.05.02-.1.05-.12 1.65-1.5 3.08-2.6 4.08-3.45.15-.12.27-.22.34-.32 2.94-2.79 5.73-5.56 5.73-5.75l-.02-.02s-.1.02-.19.05c-1.87.68-3.76 1.16-5.56 1.16h-.36l-.87-2.33zm5.39 14.9c0-.22-.02-1.84-2.09-1.84-1.17 0-1.19.68-1.19.83 0 1 1.7 1.43 3.08 1.43h.17c.02-.15.02-.27.02-.41zm-160.19.81c.07-.18.18-.35.2-.52.13-1.18.25-2.36.38-3.54.06-.56.09-1.12.22-1.66.15-.62.22-1.2.1-1.84-.11-.58-.08-1.18-.11-1.77-.02-.24-.05-.49-.1-.86-.18.23-.29.36-.4.49-1.69 2.13-3.39 4.26-5.09 6.39-.12.15-.2.44-.49.29-.29-.15-.7-.16-.69-.65 0-.37-.09-.66-.55-.74-.15-.02-.29-.27-.38-.45-.13-.26-.26-.47-.58-.54-.44-.1-.7-.45-.82-.86-.35-1.17-.38-2.34.09-3.49.1-.25.27-.5.47-.69 1.35-1.23 2.46-2.66 3.5-4.16 1-1.44 2.04-2.84 3.04-4.28.33-.47.58-.99.85-1.49.22-.41.39-.84.64-1.23.25-.4.38-.77.23-1.25-.07-.22.04-.52.13-.75.13-.32.12-.62-.08-.88-.09-.12-.28-.25-.41-.24-.59.05-1.18.15-1.76.25-.46.07-.82.32-1.08.71-.09.12-.23.27-.36.29-.63.09-1.19.35-1.63.78-.86.83-1.76.99-2.85.46-.59-.29-1.24-.43-1.87-.64-.03-.01-.07-.02-.09-.04-.56-.43-1.16-.82-1.68-1.3-.3-.28-.22-.74-.03-1.07.36-.64.28-1.26.1-1.91-.11-.38-.19-.77-.27-1.15-.12-.6-.08-.74.52-.91.63-.18 1.29-.35 1.94-.35 4.92 0 9.7-.91 14.43-2.19.48-.13.93-.14 1.4.04.98.39 1.98.71 2.94 1.15.87.4.9.51 1.32 1.35.25.01.51.03.8.05.13 1 .51 1.81 1.48 2.27.08-.12.16-.21.21-.31.6-1.24 1.62-1.74 2.96-1.78.69-.02 1.35.03 1.99.29.61.25 1.21.52 1.84.73 1.08.35 2.16.71 3.26.96.4.09.87-.15 1.3-.12 1.18.09 2.22-.58 3.38-.58.13 0 .3-.14.39-.26.33-.45.66-.91.93-1.4 1.48-2.69 2.9-5.4 4.41-8.07.83-1.46 1.78-2.84 2.68-4.26.04.01.09.03.13.04-.13-.22-.26-.45-.45-.77.22-.19.44-.41.69-.59.1-.07.28-.1.39-.07.48.16.99.29 1.43.53 1.36.74 2.7 1.52 4.05 2.28.23.13.26.29.29.55.06.58.23 1.14.38 1.82-.75.67-1.34 1.71-2.51 2.11-.47.16-.82.48-.99.97-.03.1-.11.22-.2.26-1.26.61-1.88 1.75-2.46 2.93-.11.23-.18.43-.47.51-.14.04-.27.2-.35.33-.48.76-.95 1.53-1.42 2.3.02.05.05.1.07.15l1 .12c.04 0 .11-.01.13-.05.55-.84 1.42-.56 2.14-.49 1.09.11 2.16.42 3.25.64.06.01.15.02.19.06.38.42.82.73 1.36.94.11.04.1.35.17.52.16.38.35.75.52 1.12.28.63.1 1-.54 1.19-.74.22-1.5.41-2.22.67-.63.23-1.25.24-1.9.14-.58-.09-1.13-.06-1.7.11-.87.26-1.77.39-2.64.64-.64.18-1.26.47-1.88.71-.05.02-.08.07-.13.07-.75.06-1.13.67-1.63 1.11-.22.2-.43.43-.68.57-1.33.73-2.23 1.94-3.27 2.98-.27.27-.53.55-.77.84-.23.28-.46.56-.65.87-.27.41-.26.78.05 1.21.4.55.68 1.2 1.04 1.79.08.13.25.28.38.28.84-.05 1.67-.12 2.5-.22 1.23-.15 2.45-.33 3.67-.49.49-.06 1.05.02 1.45-.21.39-.22.58-.78.93-1.12.43-.42.92-.79 1.42-1.13.2-.14.5-.13.75-.19.46-.11.92-.22 1.38-.32.32-.07.66-.09.97-.18.62-.19 1.19-.05 1.71.26 1.04.63 2.15 1.06 3.3 1.43.78.25 1.05 1 1.38 1.66.06.11-.02.33-.1.47-.48.86-.97 1.72-1.48 2.57-.07.12-.21.26-.33.27-.59.06-.87.51-1.17.91-.22.3-.45.63-.58.97-.57 1.55-1.51 2.89-2.35 4.28-.15.25-.28.52-.37.8-.27.78-.77 1.39-1.43 1.85-1.77 1.23-3.73 1.95-5.9 2.03-.24 0-.5-.08-.66.21-.02.04-.15.06-.22.04-.45-.12-.62.12-.75.49-.22.62-.49 1.22-.73 1.84-.26 0-.5-.05-.71 0-.86.26-1.6 0-2.29-.47-.44-.29-.81-.67-1.23-.99-.48-.37-.98-.72-1.46-1.08-.19-.15-.43-.28-.55-.48-1.17-2-2.14-4.1-2.59-6.38-.15-.78-.48-1.43-.82-2.25-.39.45-.74.78-.99 1.18-.84 1.32-1.71 2.63-2.45 4.01-1.04 1.93-1.98 3.91-2.96 5.87-.12.25-.2.52-.28.79-.2.66-1.22 1.41-1.91 1.39-.1 0-.21-.08-.31-.13-.16-.09-.31-.25-.47-.26-.55-.04-.74-.44-.94-.84-.49-.97-.66-2-.62-3.07.01-.4.09-.79.45-1.05.07-.05.14-.17.13-.25-.07-.44.22-.68.49-.96.72-.77 1.42-1.56 2.12-2.35.09-.1.17-.21.23-.32 2-4.06 4.62-7.72 7.11-11.47.57-.85 1.14-1.7 1.72-2.56-.4-.38-.9-.5-1.39-.63-.15-.04-.31-.11-.41-.22-1.25-1.48-2.71-2.77-4.42-3.61-1.5-.74-2.11-1.98-2.71-3.33-.06-.13-.1-.28-.16-.41-.01-.03-.04-.05-.09-.09-.13.08-.27.16-.41.25-1.02.66-2.02 1.36-3.07 1.98a6.09 6.09 0 00-2.11 2.11c-.19.31-.39.62-.53.95-.7 1.7-1.78 3.16-2.92 4.57-.27.34-.27.58-.02.9.22.29.53.56.41 1.01-.02.08.08.21.15.3.33.45.66.91 1 1.35.53.7 1.26.97 2.1.77.54-.13 1.08-.33 1.55-.61.85-.5 1.65-1.09 2.47-1.64.16-.11.31-.23.57-.41 0 .25.03.41 0 .55-.07.32-.15.65-.27.95-.06.14-.2.31-.33.36-.47.15-.79.46-1.05.86-.2.31-.37.62-.55.94-.3.53-.62 1.03-1.15 1.39-.39.26-.77.58-.71 1.07-.77.17-1.5.35-2.24.49-.19.04-.39.01-.58-.02-.61-.11-1.23-.23-1.89-.36-.04.2-.11.37-.11.54.03 1.32.03 2.64.14 3.95.13 1.51.32 3.02.56 4.51.13.81.38 1.6.62 2.39.24.76.42 1.53.34 2.33-.07.65-.86 1.06-1.41.74-.76-.43-1.53-.85-2.26-1.33-.33-.22-.66-.53-.82-.88-.39-.87-.71-1.77-1.01-2.68-.06-.2.07-.5.19-.72.16-.29.19-.49-.13-.56zm36.61-10.01h-.28c-1.4.14-2.77.47-4.05 1.04-.88.39-1.72.64-2.64.21-.01 0-.03.01-.07.03-.01.06-.05.13-.05.21-.04 1.57.15 3.09.81 4.53.11.24.17.51.27.83.54.12 1.15.26 1.76.38.32.06.65.15.97.12.79-.08 1.57-.21 2.35-.34.15-.02.41 0 .31-.31 0-.03.11-.12.18-.15.47-.15.63-.48.58-.95-.01-.13.03-.26.04-.39.05-.66.14-1.31.13-1.97-.02-.8-.14-1.6-.21-2.4-.03-.27-.06-.55-.09-.84zM42.17 18.45c-.71-.84-1.68-1.01-2.64-1.17-.77-.13-1.47-.41-2.07-.88-1.17-.94-2.31-1.9-3.45-2.89-.29-.25-.5-.61-.75-.92-.07-.09-.14-.24-.22-.25-.53-.04-.65-.41-.83-.82-.12-.29-.39-.53-.64-.73-.52-.43-.91-.93-1.26-1.5-.59-.97-1.15-2-1.92-2.81-.53-.56-.64-1.16-.83-1.8-.1-.33-.22-.66-.29-1-.19-.88.04-1.76.03-2.64 0-.66.62-1.06 1.41-1.02.97.05 1.93.21 2.89.33.28.03.55.11.83.16.97.17 1.85.51 2.59 1.22.61.6 1.32 1.09 1.96 1.66.5.45.96.94 1.44 1.41.28.28.56.56.86.82 1.64 1.43 2.93 3.16 4.06 5.01.25.4.42.87.53 1.33.08.33 0 .7 0 1.05 0 .32-.04.67.07.95.32.82.2 1.55-.21 2.31-.42.77-.85 1.52-1.55 2.21z" fill="#fff"/></g></svg>