<?xml version="1.0" encoding="UTF-8"?>
<svg id="Layer_2" data-name="Layer 2" xmlns="http://www.w3.org/2000/svg" xmlns:xlink="http://www.w3.org/1999/xlink" viewBox="0 0 216.07 65.07">
  <defs>
    <style>
      .cls-1 {
        fill: url(#_新規グラデーションスウォッチ_2);
      }

      .cls-2 {
        fill: url(#_新規グラデーションスウォッチ_2-3);
      }

      .cls-3 {
        fill: url(#_新規グラデーションスウォッチ_2-2);
      }
    </style>
    <linearGradient id="_新規グラデーションスウォッチ_2" data-name="新規グラデーションスウォッチ 2" x1="-10.94" y1="60.89" x2="205.13" y2="60.89" gradientTransform="translate(10.94 -15.63)" gradientUnits="userSpaceOnUse">
      <stop offset=".3" stop-color="#e30000"/>
      <stop offset=".73" stop-color="#e00101"/>
      <stop offset="1" stop-color="#d80807"/>
    </linearGradient>
    <linearGradient id="_新規グラデーションスウォッチ_2-2" data-name="新規グラデーションスウォッチ 2" x1="24.51" y1="20.69" x2="79.11" y2="52.21" gradientTransform="matrix(1, 0, 0, 1, 0, 0)" xlink:href="#_新規グラデーションスウォッチ_2"/>
    <linearGradient id="_新規グラデーションスウォッチ_2-3" data-name="新規グラデーションスウォッチ 2" x1="27.17" y1="3.29" x2="47.56" y2="15.06" gradientTransform="matrix(1, 0, 0, 1, 0, 0)" xlink:href="#_新規グラデーションスウォッチ_2"/>
  </defs>
  <g id="_レイヤー_5" data-name="レイヤー 5">
    <g>
      <g>
        <path d="M0,28.87H11.27v3.01H3.26v19.5H0V28.87Z"/>
        <path d="M103.18,61.64h-11.27v-3.01h8.02v-19.5h3.26v22.51Z"/>
        <path d="M139.06,37.94c-.88,.53-1.86,1.05-2.98,1.61-2.28,1.16-6.86,3.33-10.15,5.5-3.08,2-5.01,4.17-5.01,6.69,0,2.7,2.56,4.27,7.74,4.27,3.68,0,8.37-.52,11.2-1.19l-.04,3.92c-2.73,.49-6.62,.88-11.03,.88-6.69,0-11.62-1.96-11.62-7.49,0-3.68,2.34-6.51,5.88-9.03-1.58-2.94-3.33-6.83-4.94-10.54l3.47-1.4c1.37,3.71,3.04,7.25,4.52,9.98,3.04-1.82,6.47-3.54,8.26-4.55,1.16-.67,2-1.16,2.8-1.82l1.89,3.19Z"/>
        <path d="M176.69,57.61c.91,0,1.09-.84,1.19-5.15,.81,.63,2.17,1.23,3.08,1.47-.32,5.18-1.16,6.9-3.96,6.9h-3.89c-2.97,0-3.99-1.05-3.99-4.8v-14.84h-7.21c-.8,8.58-3.29,15.82-11.55,20.13-.49-.81-1.54-2.03-2.38-2.63,7.53-3.71,9.77-9.94,10.47-17.5h-8.79v-3.29h9c.1-2.66,.1-5.43,.1-8.3h3.54c-.04,2.84-.04,5.64-.17,8.3h10.4v18.17c0,1.37,.14,1.54,1.16,1.54h3.01Z"/>
        <path d="M191.49,38.46c-.59,3.22-1.5,7.28-3.01,9.77l-2.8-1.16c1.47-2.45,2.52-6.2,3.01-9.38l2.8,.77Zm4.59-8.68v10.85c0,7.21-.77,14.98-7.18,20.65-.46-.81-1.61-1.96-2.31-2.52,5.64-5.01,6.27-11.9,6.27-18.13v-10.85h3.22Zm2.87,8.54c1.26,2.8,2.45,6.41,2.77,8.68l-2.8,1.26c-.28-2.31-1.4-6.02-2.59-8.93l2.62-1.02Zm6.9-7.77v28.42h-3.19V30.55h3.19Zm2.66,7.46c1.61,2.73,3.29,6.27,3.82,8.51l-2.66,1.47c-.53-2.31-2.07-5.99-3.61-8.72l2.45-1.26Zm7.56-8.33v31.26h-3.25V29.68h3.25Z"/>
      </g>
      <g>
        <path class="cls-1" d="M0,28.87H11.27v3.01H3.26v19.5H0V28.87Z"/>
        <path class="cls-1" d="M103.18,61.64h-11.27v-3.01h8.02v-19.5h3.26v22.51Z"/>
        <path class="cls-1" d="M139.06,37.94c-.88,.53-1.86,1.05-2.98,1.61-2.28,1.16-6.86,3.33-10.15,5.5-3.08,2-5.01,4.17-5.01,6.69,0,2.7,2.56,4.27,7.74,4.27,3.68,0,8.37-.52,11.2-1.19l-.04,3.92c-2.73,.49-6.62,.88-11.03,.88-6.69,0-11.62-1.96-11.62-7.49,0-3.68,2.34-6.51,5.88-9.03-1.58-2.94-3.33-6.83-4.94-10.54l3.47-1.4c1.37,3.71,3.04,7.25,4.52,9.98,3.04-1.82,6.47-3.54,8.26-4.55,1.16-.67,2-1.16,2.8-1.82l1.89,3.19Z"/>
        <path class="cls-1" d="M176.69,57.61c.91,0,1.09-.84,1.19-5.15,.81,.63,2.17,1.23,3.08,1.47-.32,5.18-1.16,6.9-3.96,6.9h-3.89c-2.97,0-3.99-1.05-3.99-4.8v-14.84h-7.21c-.8,8.58-3.29,15.82-11.55,20.13-.49-.81-1.54-2.03-2.38-2.63,7.53-3.71,9.77-9.94,10.47-17.5h-8.79v-3.29h9c.1-2.66,.1-5.43,.1-8.3h3.54c-.04,2.84-.04,5.64-.17,8.3h10.4v18.17c0,1.37,.14,1.54,1.16,1.54h3.01Z"/>
        <path class="cls-1" d="M191.49,38.46c-.59,3.22-1.5,7.28-3.01,9.77l-2.8-1.16c1.47-2.45,2.52-6.2,3.01-9.38l2.8,.77Zm4.59-8.68v10.85c0,7.21-.77,14.98-7.18,20.65-.46-.81-1.61-1.96-2.31-2.52,5.64-5.01,6.27-11.9,6.27-18.13v-10.85h3.22Zm2.87,8.54c1.26,2.8,2.45,6.41,2.77,8.68l-2.8,1.26c-.28-2.31-1.4-6.02-2.59-8.93l2.62-1.02Zm6.9-7.77v28.42h-3.19V30.55h3.19Zm2.66,7.46c1.61,2.73,3.29,6.27,3.82,8.51l-2.66,1.47c-.53-2.31-2.07-5.99-3.61-8.72l2.45-1.26Zm7.56-8.33v31.26h-3.25V29.68h3.25Z"/>
      </g>
    </g>
    <g>
      <path class="cls-3" d="M32.87,58.35c.08-.2,.19-.37,.21-.56,.14-1.26,.27-2.53,.4-3.79,.06-.6,.1-1.2,.24-1.78,.16-.66,.24-1.29,.11-1.97-.12-.62-.08-1.27-.12-1.9-.02-.26-.06-.52-.1-.92-.2,.24-.31,.39-.43,.53-1.82,2.28-3.63,4.57-5.45,6.85-.13,.16-.21,.47-.52,.32-.31-.16-.75-.18-.74-.7,.01-.4-.1-.71-.59-.79-.16-.03-.31-.29-.41-.48-.14-.28-.28-.5-.62-.58-.48-.11-.75-.48-.88-.92-.38-1.25-.41-2.51,.1-3.74,.11-.27,.29-.54,.5-.74,1.44-1.32,2.63-2.85,3.75-4.45,1.07-1.54,2.19-3.04,3.26-4.58,.35-.5,.62-1.06,.91-1.6,.24-.43,.42-.9,.69-1.31,.27-.42,.4-.82,.25-1.33-.07-.24,.04-.56,.14-.81,.14-.35,.13-.66-.08-.95-.09-.13-.3-.27-.44-.25-.63,.06-1.26,.16-1.89,.26-.5,.08-.87,.35-1.16,.76-.09,.13-.24,.29-.38,.31-.68,.09-1.27,.38-1.75,.83-.92,.89-1.89,1.06-3.05,.49-.63-.31-1.33-.46-2-.69-.03-.01-.07-.02-.1-.04-.6-.46-1.24-.88-1.8-1.4-.32-.3-.24-.8-.04-1.15,.39-.68,.31-1.35,.11-2.05-.12-.41-.21-.82-.29-1.24-.13-.64-.09-.79,.55-.97,.67-.19,1.38-.37,2.07-.37,5.27,0,10.4-.97,15.46-2.35,.52-.14,1-.15,1.5,.05,1.05,.42,2.13,.76,3.15,1.23,.93,.43,.96,.55,1.42,1.44,.27,.02,.54,.03,.86,.05,.14,1.07,.55,1.94,1.59,2.43,.09-.13,.17-.22,.22-.33,.64-1.33,1.74-1.87,3.17-1.91,.74-.02,1.44,.03,2.13,.31,.65,.27,1.3,.56,1.97,.78,1.15,.38,2.31,.76,3.49,1.03,.43,.1,.94-.16,1.4-.13,1.26,.1,2.37-.63,3.62-.62,.14,0,.33-.15,.42-.28,.35-.49,.71-.97,1-1.49,1.58-2.88,3.11-5.79,4.73-8.65,.88-1.56,1.91-3.05,2.87-4.57,.05,.01,.09,.03,.14,.04-.14-.24-.28-.48-.48-.83,.23-.21,.47-.44,.73-.63,.11-.08,.3-.11,.42-.07,.52,.17,1.06,.31,1.53,.57,1.46,.79,2.89,1.63,4.34,2.45,.24,.14,.28,.31,.31,.59,.06,.62,.25,1.23,.41,1.95-.8,.72-1.44,1.83-2.68,2.26-.5,.17-.88,.52-1.06,1.04-.04,.11-.11,.24-.21,.28-1.35,.65-2.02,1.88-2.64,3.14-.12,.24-.19,.47-.5,.55-.15,.04-.29,.21-.38,.35-.51,.82-1.01,1.64-1.52,2.46,.03,.05,.05,.11,.08,.16,.36,.04,.71,.09,1.07,.13,.05,0,.12-.01,.14-.05,.59-.9,1.52-.6,2.29-.52,1.17,.12,2.32,.45,3.48,.69,.07,.01,.16,.02,.2,.06,.41,.45,.88,.79,1.45,1,.11,.04,.1,.37,.18,.56,.17,.41,.38,.8,.55,1.2,.3,.68,.11,1.07-.58,1.27-.8,.23-1.6,.44-2.38,.72-.68,.25-1.34,.26-2.03,.15-.62-.1-1.21-.07-1.82,.12-.93,.28-1.9,.42-2.83,.68-.69,.2-1.35,.5-2.02,.76-.05,.02-.09,.08-.14,.08-.81,.07-1.21,.72-1.74,1.19-.24,.21-.46,.46-.73,.61-1.43,.78-2.39,2.07-3.51,3.19-.29,.29-.56,.59-.83,.9-.25,.3-.49,.6-.7,.93-.28,.44-.28,.83,.06,1.3,.43,.59,.73,1.28,1.11,1.91,.08,.14,.27,.3,.4,.3,.9-.05,1.79-.12,2.68-.23,1.31-.16,2.62-.35,3.93-.53,.53-.07,1.13,.02,1.56-.22,.42-.24,.62-.84,.99-1.2,.46-.45,.99-.85,1.52-1.21,.21-.14,.53-.14,.8-.2,.49-.12,.99-.24,1.48-.35,.34-.07,.7-.1,1.04-.2,.66-.2,1.28-.05,1.83,.28,1.11,.68,2.3,1.14,3.53,1.53,.84,.27,1.13,1.07,1.48,1.77,.06,.12-.02,.36-.1,.5-.52,.92-1.04,1.84-1.58,2.75-.08,.13-.23,.28-.36,.29-.63,.06-.93,.54-1.25,.98-.24,.32-.48,.67-.62,1.04-.62,1.66-1.62,3.1-2.52,4.59-.16,.27-.3,.56-.4,.86-.29,.84-.83,1.49-1.54,1.98-1.9,1.32-4,2.09-6.32,2.18-.25,0-.54-.08-.7,.23-.03,.05-.17,.07-.24,.05-.48-.13-.66,.13-.8,.53-.24,.66-.52,1.31-.79,1.97-.28,0-.54-.06-.76,.01-.92,.28-1.72,0-2.45-.5-.47-.31-.87-.72-1.32-1.06-.51-.4-1.05-.77-1.57-1.16-.21-.16-.46-.31-.59-.52-1.25-2.15-2.29-4.4-2.78-6.84-.17-.84-.52-1.53-.88-2.41-.41,.49-.79,.84-1.06,1.26-.9,1.42-1.83,2.82-2.63,4.29-1.12,2.07-2.13,4.19-3.17,6.29-.13,.27-.21,.56-.3,.85-.22,.71-1.31,1.51-2.05,1.48-.11,0-.22-.08-.33-.14-.17-.09-.33-.27-.5-.28-.59-.04-.79-.47-1.01-.9-.52-1.03-.71-2.14-.67-3.29,.01-.42,.09-.85,.48-1.13,.07-.05,.15-.18,.13-.26-.07-.48,.24-.73,.52-1.03,.77-.83,1.52-1.68,2.27-2.52,.09-.1,.18-.22,.24-.35,2.14-4.35,4.95-8.28,7.62-12.29,.61-.91,1.22-1.82,1.84-2.74-.43-.41-.96-.54-1.49-.68-.16-.04-.34-.12-.44-.24-1.34-1.59-2.9-2.97-4.73-3.87-1.61-.79-2.26-2.12-2.9-3.57-.06-.14-.11-.3-.17-.44-.01-.03-.05-.05-.1-.1-.14,.09-.29,.17-.44,.27-1.1,.71-2.17,1.46-3.29,2.12-.96,.57-1.69,1.32-2.26,2.26-.2,.33-.42,.66-.57,1.02-.75,1.82-1.9,3.38-3.13,4.9-.29,.36-.29,.62-.02,.97,.24,.31,.57,.6,.44,1.08-.02,.09,.09,.22,.16,.32,.35,.49,.71,.97,1.07,1.45,.57,.75,1.35,1.04,2.25,.83,.58-.14,1.16-.35,1.67-.65,.91-.54,1.77-1.17,2.65-1.76,.17-.12,.33-.24,.61-.44,0,.27,.03,.44,0,.59-.08,.34-.16,.69-.29,1.02-.06,.15-.21,.34-.36,.38-.51,.16-.85,.5-1.12,.92-.21,.33-.4,.67-.59,1.01-.32,.57-.66,1.11-1.23,1.49-.41,.28-.83,.63-.76,1.15-.83,.19-1.61,.37-2.4,.53-.2,.04-.42,.01-.63-.02-.66-.11-1.31-.25-2.03-.38-.04,.22-.12,.4-.11,.58,.04,1.41,.03,2.83,.15,4.23,.14,1.62,.35,3.23,.6,4.84,.14,.87,.41,1.71,.67,2.56,.25,.82,.45,1.63,.36,2.5-.07,.69-.92,1.14-1.52,.8-.81-.47-1.64-.91-2.42-1.42-.35-.23-.71-.57-.88-.94-.42-.93-.77-1.9-1.08-2.87-.07-.22,.08-.54,.2-.77,.17-.31,.2-.53-.14-.6Zm39.23-10.72c-.13,0-.22,0-.3,0-1.5,.15-2.97,.5-4.34,1.11-.94,.42-1.84,.68-2.82,.22-.01,0-.03,.01-.08,.03-.02,.06-.05,.14-.05,.23-.04,1.68,.16,3.31,.87,4.86,.12,.26,.18,.55,.29,.89,.58,.13,1.23,.28,1.89,.4,.34,.07,.7,.16,1.04,.12,.84-.08,1.68-.23,2.51-.36,.16-.03,.44,0,.33-.33,0-.03,.12-.13,.19-.16,.5-.16,.67-.51,.62-1.02-.01-.14,.03-.28,.04-.42,.05-.7,.16-1.41,.14-2.11-.02-.86-.14-1.72-.23-2.57-.03-.29-.06-.59-.09-.9Z"/>
      <path class="cls-2" d="M44.54,19.77c-.76-.9-1.8-1.08-2.83-1.26-.82-.14-1.58-.44-2.22-.95-1.25-1-2.48-2.04-3.69-3.09-.31-.27-.54-.65-.8-.98-.08-.09-.15-.26-.24-.27-.57-.04-.7-.44-.89-.88-.13-.31-.42-.56-.69-.79-.55-.46-.98-1-1.35-1.61-.63-1.04-1.23-2.14-2.06-3.01-.56-.6-.68-1.25-.89-1.93-.11-.35-.23-.71-.31-1.07-.2-.94,.04-1.89,.03-2.83,0-.71,.66-1.14,1.51-1.1,1.04,.05,2.07,.22,3.1,.35,.3,.04,.59,.11,.88,.17,1.04,.19,1.99,.54,2.78,1.31,.66,.64,1.42,1.17,2.1,1.78,.54,.48,1.03,1.01,1.55,1.51,.3,.3,.6,.6,.92,.88,1.76,1.54,3.14,3.39,4.35,5.36,.26,.43,.44,.93,.56,1.42,.09,.36,0,.75,0,1.13,0,.34-.04,.72,.08,1.02,.35,.88,.21,1.66-.23,2.47-.45,.82-.91,1.63-1.66,2.37Z"/>
    </g>
  </g>
</svg>