<svg id="Layer_2" data-name="Layer 2" xmlns="http://www.w3.org/2000/svg" viewBox="0 0 29 23.28"><defs><style>.cls-1{fill:none;stroke:#8ec43c;stroke-linecap:round;stroke-linejoin:round}</style></defs><g id="Design"><g id="icon"><path class="cls-1" d="M2.65 9.54l-1.21 1.7c-.12.17-.19.37-.19.58v5.27c0 .55.45 1 1 1h12.2m0-17.59H7.36c-.37 0-.71.2-.88.53L4.16 5.35m22.08 4.19l1.21 1.7c.12.17.19.37.19.58v5.27c0 .55-.45 1-1 1H14.45m0-17.59h7.08c.37 0 .71.2.88.53l2.43 4.52"/><path class="cls-1" d="M.5 5.34h3.16c.31 0 .61.15.8.4l1.61 2.13a1 1 0 00.8.4h15.46a1 1 0 00.81-.41l1.4-1.91a1 1 0 01.81-.41h3.16M5.65 13.69h1.47m14.65 0h1.47M7.85 19.85c0 1.61-.99 2.93-2.2 2.93H4.18c-1.21 0-2.2-1.32-2.2-2.93m24.92 0c0 1.61-.99 2.93-2.2 2.93h-1.47c-1.21 0-2.2-1.32-2.2-2.93"/></g></g></svg>