<svg data-name="Layer 2" xmlns="http://www.w3.org/2000/svg" viewBox="0 0 40 40"><defs><clipPath id="a"><path fill="none" d="M0 0h40v40H0z"/></clipPath></defs><g clip-path="url(#a)"><path d="M40 20C40 8.95 31.04 0 20 0S0 8.95 0 20c0 9.98 7.31 18.26 16.87 19.76V25.78h-5.08V20h5.08v-4.41c0-5.01 2.99-7.78 7.56-7.78 2.19 0 4.48.39 4.48.39v4.92h-2.52c-2.48 0-3.26 1.54-3.26 3.12v3.75h5.55l-.89 5.78h-4.66v13.98c9.56-1.5 16.88-9.78 16.88-19.76z" fill="#1877f2"/></g><path d="M27.78 25.78l.89-5.78h-5.55v-3.75c0-1.58.77-3.12 3.26-3.12h2.52V8.21s-2.29-.39-4.48-.39c-4.57 0-7.56 2.77-7.56 7.78v4.41h-5.08v5.78h5.08v13.98c1.02.16 2.06.24 3.13.24s2.11-.08 3.13-.24V25.79h4.66z" fill="#fff"/></svg>