<svg xmlns="http://www.w3.org/2000/svg" viewBox="0 0 60 60"><defs><clipPath id="clip-path"><path fill="none" d="M15 15h30v30H15z"/></clipPath><style>.cls-2{fill:#fff}</style></defs><g id="Layer_2" data-name="Layer 2"><g id="Design"><rect class="cls-2" width="60" height="60" rx="30"/><g clip-path="url(#clip-path)"><path d="M45 30a15 15 0 10-17.34 14.82V34.34h-3.81V30h3.81v-3.3c0-3.76 2.24-5.84 5.66-5.84a23.37 23.37 0 013.36.29v3.69h-1.89a2.17 2.17 0 00-2.45 2.35V30h4.16l-.66 4.34h-3.5v10.48A15 15 0 0045 30z" fill="#1877f2"/></g><path class="cls-2" d="M35.84 34.34L36.5 30h-4.16v-2.81a2.17 2.17 0 012.45-2.35h1.89v-3.69a23.37 23.37 0 00-3.36-.29c-3.42 0-5.66 2.08-5.66 5.84V30h-3.81v4.34h3.81v10.48a15.3 15.3 0 004.68 0V34.34z"/></g></g></svg>