<svg data-name="Layer 2" xmlns="http://www.w3.org/2000/svg" viewBox="0 0 27 27"><path d="M20.62 26.5c-1.38 0-2.86-.4-4.39-1.2-2.83-1.47-4.81-2.62-8.36-6.17s-4.7-5.53-6.17-8.36c-2.61-5.03-.26-7.97.52-8.75l.87-.87C3.52.72 4.01.5 4.52.5c.55 0 1.08.26 1.52.76.81.91 2.43 3.31 3.04 4.32.67 1.11.51 2.46-.41 3.38l-1.68 1.68c1.19 2.07 2.44 3.72 4.05 5.33 1.61 1.61 3.26 2.86 5.33 4.05l1.68-1.68c.53-.53 1.22-.82 1.95-.82.5 0 .99.14 1.44.41 1.01.61 3.41 2.23 4.32 3.04.48.43.74.94.76 1.47.01.52-.21 1.03-.65 1.48l-.86.86c-.52.52-1.98 1.72-4.37 1.72h0z" fill="none" stroke="#fff" stroke-linecap="round" stroke-miterlimit="10"/></svg>