<svg xmlns="http://www.w3.org/2000/svg" viewBox="0 0 60 60"><defs><style>.cls-1{fill:#fff}.cls-2{fill:#06c755}</style></defs><g id="Layer_2" data-name="Layer 2"><g id="Design"><rect class="cls-1" width="60" height="60" rx="30"/><rect class="cls-2" x="15.5" y="15.5" width="29" height="29" rx="6.54"/><path class="cls-1" d="M39.67 28.63c0-4.32-4.34-7.84-9.67-7.84s-9.67 3.52-9.67 7.84c0 3.88 3.44 7.13 8.09 7.75.31.06.74.2.85.47a2 2 0 010 .88s-.11.68-.14.82-.19 1 .84.53a31.35 31.35 0 007.6-5.62 6.93 6.93 0 002.1-4.83z"/><path class="cls-2" d="M36.45 31.13h-2.72a.18.18 0 01-.18-.18v-4.22a.19.19 0 01.18-.19h2.72a.2.2 0 01.19.19v.68a.19.19 0 01-.19.19H34.6v.71h1.85a.19.19 0 01.19.19v.68a.2.2 0 01-.19.19H34.6v.71h1.85a.19.19 0 01.19.18V31a.19.19 0 01-.19.13zm-10.05 0a.19.19 0 00.19-.18v-.69a.19.19 0 00-.19-.18h-1.84v-3.35a.2.2 0 00-.19-.19h-.68a.19.19 0 00-.19.19v4.21a.18.18 0 00.19.18h2.71z"/><rect class="cls-2" x="27.17" y="26.54" width="1.05" height="4.59" rx=".18"/><path class="cls-2" d="M32.71 26.54H32a.19.19 0 00-.18.19v2.5l-1.93-2.6h-.82a.19.19 0 00-.19.19V31a.18.18 0 00.19.18h.68a.19.19 0 00.19-.18v-2.56l1.93 2.61a.12.12 0 00.05.05h.79a.18.18 0 00.18-.18v-4.19a.19.19 0 00-.18-.19z"/></g></g></svg>