<svg xmlns="http://www.w3.org/2000/svg" viewBox="0 0 46.9 40"><path d="M39.51 1.63A13.84 13.84 0 0029 .6a12.76 12.76 0 00-7.49 6.67 16 16 0 00-.71 1.63.42.42 0 01-.73.1 10.46 10.46 0 00-8.45-4.38A10.93 10.93 0 002.69 9a14.83 14.83 0 00-2.1 12.72c2.35 8.37 11.13 14.85 18.58 18.12a1.69 1.69 0 00.73.16 1.83 1.83 0 001.75-1.28 1.61 1.61 0 00.07-.37.34.34 0 000-.1v-7.61a1.51 1.51 0 013 0v7.53a1.64 1.64 0 001.63 1.64 1.65 1.65 0 001.64-1.64v-7.53a1.51 1.51 0 013 0v7.53a1.64 1.64 0 001.64 1.64 1.65 1.65 0 001.64-1.64v-7.53a1.51 1.51 0 013 0v7.53a1.64 1.64 0 003.28 0v-7.53a4.78 4.78 0 00-7.94-3.56 4.78 4.78 0 00-6.31 0 4.78 4.78 0 00-7.94 3.56v4.81a38.39 38.39 0 01-8.19-5.6 20.41 20.41 0 01-6.16-9.12 11.29 11.29 0 011.5-9.57 7.24 7.24 0 016-2.88 7 7 0 015.81 3.36C19 13.89 22.3 15 24.1 10.52c.1-.26.42-1.09.68-1.6a9.05 9.05 0 015.34-4.83 10.17 10.17 0 017.71.79 9.54 9.54 0 014.8 5.46 12.31 12.31 0 01-2.08 11.55 1.84 1.84 0 001.41 3 1.83 1.83 0 001.43-.69 15.9 15.9 0 002.73-14.95 13 13 0 00-6.61-7.62z" fill="#fff" data-name="Layer 2"/></svg>