<svg data-name="Layer 2" xmlns="http://www.w3.org/2000/svg" viewBox="0 0 35.18 30"><path d="M29.64 1.22c-2.5-1.29-5.37-1.57-7.89-.77-2.41.77-4.35 2.5-5.62 5-.2.39-.38.8-.54 1.23-.09.23-.4.27-.55.07-1.54-2.05-3.78-3.28-6.33-3.28-2.74 0-5.12 1.15-6.7 3.24C.1 9.24-.51 12.91.44 16.29c1.76 6.28 8.35 11.14 13.93 13.59.18.08.37.12.55.12.57 0 1.12-.36 1.31-.96.03-.09.05-.19.06-.28v-5.79c0-.61.51-1.1 1.13-1.1s1.13.49 1.13 1.1v5.65a1.23 1.23 0 102.46 0v-5.65c0-.61.51-1.1 1.13-1.1s1.13.49 1.13 1.1v5.65a1.23 1.23 0 102.46 0v-5.65c0-.61.51-1.1 1.13-1.1s1.13.49 1.13 1.1v5.65a1.23 1.23 0 102.46 0v-5.65c0-1.96-1.61-3.56-3.59-3.56-.91 0-1.74.34-2.37.89a3.597 3.597 0 00-4.74 0c-.63-.55-1.46-.89-2.37-.89-1.98 0-3.59 1.6-3.59 3.56v3.61c-2.28-1.17-4.41-2.63-6.14-4.2-2.37-2.16-3.97-4.53-4.62-6.84-.71-2.53-.27-5.34 1.12-7.18C5.22 6.95 6.78 6.2 8.66 6.2S12 7.28 13.01 8.72c1.19 1.68 3.66 2.5 5-.84.08-.19.32-.82.51-1.2.94-1.85 2.29-3.07 4-3.62 1.82-.58 3.93-.37 5.78.59 1.76.91 3.07 2.41 3.6 4.1.96 3.06.39 6.22-1.56 8.66-.43.53-.41 1.32.06 1.81a1.38 1.38 0 002.07-.08c2.54-3.17 3.29-7.26 2.04-11.21-.76-2.42-2.52-4.45-4.95-5.72z" fill="#fff"/></svg>