<svg id="Layer_2" data-name="Layer 2" xmlns="http://www.w3.org/2000/svg" viewBox="0 0 28 23.51"><defs><style>.cls-1{fill:#8ec43c}</style></defs><g id="Design"><path class="cls-1" d="M9.77 1h8.91c.72.01 1.44.12 2.13.31 4.5 1.26 7.14 5.95 5.88 10.43a8.84 8.84 0 01-8.47 6.24h-2.65c-.77 0-1.5.35-1.97.93l-3.04 3.46v-4.39H9.21c-.68-.02-1.36-.13-2.02-.31a8.432 8.432 0 01-5.1-4.01 8.426 8.426 0 01-.78-6.42A8.827 8.827 0 019.77 1m0-1C5.46 0 1.64 2.81.36 6.94c-1.42 5.04 1.52 10.27 6.56 11.69.73.21 1.49.32 2.25.35h.38v3.63a.905.905 0 001.58.6l3.2-3.64c.31-.37.76-.58 1.23-.59h2.64c4.31 0 8.14-2.8 9.43-6.94C29.04 7 26.1 1.77 21.06.35 20.28.13 19.48.02 18.68 0H9.77z"/><circle class="cls-1" cx="9.07" cy="9.66" r=".87"/><circle class="cls-1" cx="13.96" cy="9.66" r=".87"/><circle class="cls-1" cx="18.86" cy="9.66" r=".87"/></g></svg>