<svg data-name="Layer 2" xmlns="http://www.w3.org/2000/svg" viewBox="0 0 20 20"><path d="M15.48 20c-1.06 0-2.2-.31-3.38-.92-2.18-1.13-3.7-2.01-6.43-4.74C2.94 11.6 2.05 10.08.92 7.9c-2-3.87-.2-6.13.4-6.73L1.99.5c.33-.33.71-.5 1.1-.5.43 0 .83.2 1.17.58.62.7 1.87 2.55 2.34 3.32.52.85.39 1.9-.32 2.6L4.99 7.79c.91 1.59 1.88 2.86 3.12 4.1 1.24 1.24 2.51 2.2 4.1 3.12l1.29-1.29a2.105 2.105 0 012.6-.32c.77.47 2.62 1.71 3.32 2.34.37.33.57.72.58 1.13.01.4-.16.8-.5 1.13l-.66.66c-.4.4-1.52 1.32-3.36 1.32z" fill="#78c53c"/></svg>