<svg id="Layer_2" data-name="Layer 2" xmlns="http://www.w3.org/2000/svg" viewBox="0 0 20.05 33"><defs><style>.cls-1,.cls-2{fill:none;stroke:#fff;stroke-linecap:round;stroke-miterlimit:10}.cls-2{stroke-width:.5px}</style></defs><g id="Design"><path class="cls-1" d="M4.31.5H16.7a2.86 2.86 0 012.86 2.86v26.28a2.86 2.86 0 01-2.86 2.86H3.36A2.86 2.86 0 01.5 29.64V3.36A2.86 2.86 0 013.36.5h.95"/><path class="cls-1" d="M15.74.5l-1.7 3.28c-.17.33-.51.53-.88.53H6.89c-.37 0-.71-.2-.88-.53L4.31.5"/><path class="cls-2" d="M14.74 14.13a5.718 5.718 0 01-9.42 6.48 5.718 5.718 0 017.95-7.95"/><path class="cls-2" d="M9.99 15.14v2.13l1.04 1.04m-5.2-1.04"/></g></svg>