<svg xmlns="http://www.w3.org/2000/svg" xmlns:xlink="http://www.w3.org/1999/xlink" viewBox="0 0 60 60"><defs><style>.cls-1{fill:none;}.cls-2{fill:#fff;}.cls-3{clip-path:url(#clip-path);}.cls-4{fill:#1877f2;}</style><clipPath id="clip-path"><rect class="cls-1" x="15" y="15" width="30" height="30"/></clipPath></defs><g id="Layer_2" data-name="Layer 2"><g id="Design"><rect class="cls-2" width="60" height="60" rx="30"/><g class="cls-3"><path class="cls-4" d="M45,30A15,15,0,1,0,27.66,44.82V34.34H23.85V30h3.81V26.7c0-3.76,2.24-5.84,5.66-5.84a23.37,23.37,0,0,1,3.36.29v3.69H34.79a2.17,2.17,0,0,0-2.45,2.35V30H36.5l-.66,4.34h-3.5V44.82A15,15,0,0,0,45,30Z"/></g><path class="cls-2" d="M35.84,34.34,36.5,30H32.34V27.19a2.17,2.17,0,0,1,2.45-2.35h1.89V21.15a23.37,23.37,0,0,0-3.36-.29c-3.42,0-5.66,2.08-5.66,5.84V30H23.85v4.34h3.81V44.82a15.3,15.3,0,0,0,4.68,0V34.34Z"/></g></g></svg>