<svg id="Layer_2" data-name="Layer 2" xmlns="http://www.w3.org/2000/svg" viewBox="0 0 23.56 16.31"><defs><style>.cls-1{fill:#fff}.cls-2{fill:none}</style></defs><g id="Design"><path class="cls-1" d="M23.56 0h-.51l.51.78V0z"/><path class="cls-2" d="M21.21 1.1H2.22l9.13 6.39 9.86-6.39z"/><path class="cls-2" d="M1.1 1.66v13.55h21.36V1.6L11.33 8.82 1.1 1.66z"/><path class="cls-1" d="M22.46 1.6v13.61H1.1V1.66L0 .89v15.42h23.56V.89l-1.1.71zM0 0v.76L.53 0H0z"/><path class="cls-1" d="M21.21 1.1l1.7-1.1H.65l1.57 1.1h18.99zm0 0l-9.86 6.39L2.22 1.1H1.1v.56l10.23 7.16L22.46 1.6v-.5h-1.25z"/><path class="cls-1" d="M1.1 1.1h1.12L.65 0H.53L0 .76v.13l1.1.77V1.1zm21.36 0v.5l1.1-.71V.78L23.05 0h-.14l-1.7 1.1h1.25z"/></g></svg>