<svg id="Layer_2" data-name="Layer 2" xmlns="http://www.w3.org/2000/svg" viewBox="0 0 23.21 24.35"><defs><style>.cls-1{fill:#fff}</style></defs><g id="_レイヤー_1" data-name="レイヤー 1"><path class="cls-1" d="M4.77 9.93s1.39-.27 2.22-.91 1.17-1.39 1.05-2.19c-.12-.8-.96-2.49-1.94-3.41-.99-.92-1.91-1.4-2.95-1.13C2.1 2.56.6 4.13.12 6.75s.48 6.75 2.75 9.94c2.27 3.19 4.68 5.3 7.44 6.7 2.77 1.39 5.43.98 6.7.52 1.27-.46 2.21-1.4 2.21-2.44 0-1.03-.61-2.14-1.36-3.12-.75-.98-1.99-1.96-3.12-1.83-1.13.12-2.15 1.14-2.82 2.56 0 0-2.22-.35-4.52-2.97-2.31-2.62-2.59-5.03-2.64-6.2z"/><ellipse cx="5.38" cy="5.31" rx="1.01" ry="2.8" transform="rotate(-39.4 5.377 5.312)"/><ellipse cx="16.54" cy="19.54" rx="1.01" ry="2.8" transform="rotate(-39.4 16.538 19.55)"/><path class="cls-1" d="M11.81 7.45c-.22 0-.44.13-.53.35-.13.29 0 .63.3.76.03.01 2.99 1.33 2.92 3.86 0 .15.05.3.16.41s.25.18.4.18h.02c.32 0 .57-.25.58-.56.1-3.29-3.46-4.89-3.61-4.95a.593.593 0 00-.23-.05zm7.04 6.18c.31 0 .56-.24.58-.55.14-2.91-.98-5.45-3.25-7.34-1.69-1.41-3.41-1.96-3.48-1.98a.567.567 0 00-.72.38c-.09.3.07.63.38.73.25.08 6.22 2.04 5.92 8.16 0 .15.04.3.15.42.1.11.25.18.4.19h.03z"/><path class="cls-1" d="M22.62 14.24c.3 0 .56-.24.58-.54 0-.17.23-4.32-1.99-8.1C18.95 1.75 13.6.09 13.37.03a.567.567 0 00-.72.38c-.09.31.08.63.39.72.05.02 5.15 1.61 7.18 5.05 2.02 3.43 1.84 7.28 1.83 7.44-.02.32.22.6.54.62h.04z"/></g></svg>