<svg xmlns="http://www.w3.org/2000/svg" viewBox="0 0 60 60"><defs><style>.cls-1{fill:#fff;}.cls-2{fill:#06c755;}</style></defs><g id="Layer_2" data-name="Layer 2"><g id="Design"><rect class="cls-1" width="60" height="60" rx="30"/><rect class="cls-2" x="15.5" y="15.5" width="29" height="29" rx="6.54"/><path class="cls-1" d="M39.67,28.63c0-4.32-4.34-7.84-9.67-7.84s-9.67,3.52-9.67,7.84c0,3.88,3.44,7.13,8.09,7.75.31.06.74.2.85.47a2,2,0,0,1,0,.88s-.11.68-.14.82-.19,1,.84.53a31.35,31.35,0,0,0,7.6-5.62h0A6.93,6.93,0,0,0,39.67,28.63Z"/><path class="cls-2" d="M36.45,31.13H33.73a.18.18,0,0,1-.18-.18h0V26.73h0a.19.19,0,0,1,.18-.19h2.72a.2.2,0,0,1,.19.19v.68a.19.19,0,0,1-.19.19H34.6v.71h1.85a.19.19,0,0,1,.19.19v.68a.2.2,0,0,1-.19.19H34.6v.71h1.85a.19.19,0,0,1,.19.18V31A.19.19,0,0,1,36.45,31.13Z"/><path class="cls-2" d="M26.4,31.13a.19.19,0,0,0,.19-.18v-.69a.19.19,0,0,0-.19-.18H24.56V26.73a.2.2,0,0,0-.19-.19h-.68a.19.19,0,0,0-.19.19v4.21h0a.18.18,0,0,0,.19.18H26.4Z"/><rect class="cls-2" x="27.17" y="26.54" width="1.05" height="4.59" rx="0.18"/><path class="cls-2" d="M32.71,26.54H32a.19.19,0,0,0-.18.19v2.5l-1.93-2.6,0,0h-.82a.19.19,0,0,0-.19.19V31a.18.18,0,0,0,.19.18h.68a.19.19,0,0,0,.19-.18V28.44l1.93,2.61a.12.12,0,0,0,.05.05h.79a.18.18,0,0,0,.18-.18V26.73A.19.19,0,0,0,32.71,26.54Z"/></g></g></svg>