<?xml version="1.0" encoding="UTF-8"?>
<svg id="Layer_2" data-name="Layer 2" xmlns="http://www.w3.org/2000/svg" viewBox="0 0 28 23.51">
  <defs>
    <style>
      .cls-1 {
        fill: #8ec43c;
      }
    </style>
  </defs>
  <g id="Design">
    <g>
      <path class="cls-1" d="M9.77,1h.21s8.7,0,8.7,0c.72,.01,1.44,.12,2.13,.31,4.5,1.26,7.14,5.95,5.88,10.43-1.16,3.73-4.57,6.24-8.47,6.24h-.2s-2.45,0-2.45,0c-.77,0-1.5,.35-1.97,.93l-3.04,3.46v-4.39h-1.35c-.68-.02-1.36-.13-2.02-.31-2.18-.61-3.99-2.04-5.1-4.01-1.11-1.97-1.38-4.26-.78-6.42C2.47,3.51,5.87,1,9.77,1h0m0-1C5.46,0,1.64,2.81,.36,6.94c-1.42,5.04,1.52,10.27,6.56,11.69,.73,.21,1.49,.32,2.25,.35h.38v3.63c0,.5,.41,.9,.91,.9h0c.25,0,.5-.11,.67-.3l3.2-3.64c.31-.37,.76-.58,1.23-.59h2.44c.07,0,.13,0,.2,0,4.31,0,8.14-2.8,9.43-6.94,1.41-5.04-1.53-10.27-6.57-11.69-.78-.22-1.58-.33-2.38-.35H9.98c-.07,0-.14,0-.21,0h0Z"/>
      <circle class="cls-1" cx="9.07" cy="9.66" r=".87"/>
      <circle class="cls-1" cx="13.96" cy="9.66" r=".87"/>
      <circle class="cls-1" cx="18.86" cy="9.66" r=".87"/>
    </g>
  </g>
</svg>