<?xml version="1.0" encoding="UTF-8"?>
<svg id="Layer_2" data-name="Layer 2" xmlns="http://www.w3.org/2000/svg" viewBox="0 0 20 20">
  <defs>
    <style>
      .cls-1 {
        fill: #78c53c;
      }
    </style>
  </defs>
  <g id="Design">
    <path class="cls-1" d="M15.48,20c-1.06,0-2.2-.31-3.38-.92-2.18-1.13-3.7-2.01-6.43-4.74C2.94,11.6,2.05,10.08,.92,7.9-1.08,4.03,.72,1.77,1.32,1.17l.67-.67c.33-.33,.71-.5,1.1-.5,.43,0,.83,.2,1.17,.58,.62,.7,1.87,2.55,2.34,3.32,.52,.85,.39,1.9-.32,2.6l-1.29,1.29c.91,1.59,1.88,2.86,3.12,4.1,1.24,1.24,2.51,2.2,4.1,3.12l1.29-1.29c.41-.41,.94-.63,1.5-.63,.38,0,.77,.11,1.1,.31,.77,.47,2.62,1.71,3.32,2.34,.37,.33,.57,.72,.58,1.13,.01,.4-.16,.8-.5,1.13l-.66,.66c-.4,.4-1.52,1.32-3.36,1.32h0Z"/>
  </g>
</svg>