<?xml version="1.0" encoding="UTF-8"?>
<svg id="Layer_2" data-name="Layer 2" xmlns="http://www.w3.org/2000/svg" viewBox="0 0 16 16">
  <defs>
    <style>
      .cls-1 {
        fill: #fff;
      }

      .cls-2 {
        fill: #78c53c;
      }

      .cls-3 {
        fill: none;
        stroke: #78c53c;
        stroke-linecap: round;
        stroke-miterlimit: 10;
      }
    </style>
  </defs>
  <g id="Design">
    <g>
      <g>
        <rect class="cls-1" x=".5" y=".5" width="15" height="15" rx="2.5" ry="2.5"/>
        <path class="cls-2" d="M13,1c1.1,0,2,.9,2,2V13c0,1.1-.9,2-2,2H3c-1.1,0-2-.9-2-2V3C1,1.9,1.9,1,3,1H13m0-1H3C1.34,0,0,1.34,0,3V13c0,1.66,1.34,3,3,3H13c1.66,0,3-1.34,3-3V3c0-1.66-1.34-3-3-3h0Z"/>
      </g>
      <path class="cls-3" d="M3,7.77l3.28,3.78c.32,.37,.9,.35,1.19-.04l5.53-7.34"/>
    </g>
  </g>
</svg>