<svg xmlns="http://www.w3.org/2000/svg" viewBox="0 0 70 70"><defs><style>.cls-1{fill:#78c53c;}</style></defs><g id="Layer_2" data-name="Layer 2"><g id="Design"><path class="cls-1" d="M69.7.3a1,1,0,0,0-1.45,0L58.15,10.4a2.93,2.93,0,0,0-2.52,0,19.9,19.9,0,0,0-5.47,4.08l-.25-.24a3.77,3.77,0,0,0-5.32,0l-3.35,3.35a1,1,0,0,0,1.45,1.45L46,15.73a1.71,1.71,0,0,1,2.42,0l5.81,5.81a1.71,1.71,0,0,1,0,2.42l-1,1-3.09-3.09a1,1,0,0,0-1.45,0,1,1,0,0,0,0,1.45l3.09,3.09L50.25,28l-2.13-2.13a1,1,0,1,0-1.45,1.45l2.13,2.13L47.25,31l-3.09-3.1a1,1,0,0,0-1.45,1.45l3.09,3.1L44.26,34l-2.13-2.13a1,1,0,1,0-1.45,1.45l2.13,2.13L41.26,37l-3.1-3.1a1,1,0,0,0-1.45,1.45l3.1,3.1L38,40.26l-2.62-2.62a1,1,0,0,0-1.45,1.45l2.62,2.62L35,43.26,26.74,35l1.55-1.55,2.15,2.15a1,1,0,0,0,1.45-1.45L29.74,32l9.57-9.57A1,1,0,1,0,37.86,21L19.2,39.68l-1.94-1.94a3.15,3.15,0,0,0-4.45,4.45l5,5L14,51.08a1,1,0,0,0,1.45,1.45l3.86-3.86,2.13,2.13L12,60.19,9.91,58.06l2.14-2.15a1,1,0,0,0-1.45-1.45L8.46,56.61l-3.1-3.1A3.14,3.14,0,0,0,.92,58L12,69.08a3.14,3.14,0,0,0,4.45-4.44l-3-3,9.39-9.39.94.94a1,1,0,1,0,1.45-1.45l-11-11a1.1,1.1,0,0,1,1.55-1.55l15,15a1.1,1.1,0,1,1-1.55,1.55l-.61-.61a1,1,0,0,0-1.45,0,1,1,0,0,0,0,1.45l.61.61a3.15,3.15,0,1,0,4.45-4.45L30.32,50.8l25.4-25.39a3.77,3.77,0,0,0,0-5.32l-.24-.25a19.9,19.9,0,0,0,4.08-5.47,2.93,2.93,0,0,0,0-2.52L69.7,1.75A1,1,0,0,0,69.7.3ZM15,67.63a1.09,1.09,0,0,1-1.55,0L2.37,56.51a1.09,1.09,0,0,1,0-1.55,1.08,1.08,0,0,1,1.54,0L15,66.09A1.08,1.08,0,0,1,15,67.63Zm8.71-23.41,4.64-4.64,2.13,2.13-4.65,4.64ZM32,43.16l1.55,1.55-4.65,4.64L27.32,47.8Zm-6.68-6.68,1.65,1.65-4.65,4.64-1.64-1.64Zm32.43-23A17.69,17.69,0,0,1,54,18.39L51.61,16a17.69,17.69,0,0,1,4.94-3.69.87.87,0,0,1,1.17,1.17Z"/></g></g></svg>