<svg xmlns="http://www.w3.org/2000/svg" viewBox="0 0 70.93 70"><defs><style>.cls-1{fill:#78c53c;}</style></defs><g id="Layer_2" data-name="Layer 2"><g id="Design"><path class="cls-1" d="M70.72,57.46a3.62,3.62,0,0,0-4.58-2.17L64.08,56a7.26,7.26,0,0,0,1.1-2A6.58,6.58,0,0,0,65,48.9c-1.64-3.54-6.19-5-10.12-3.19a8.17,8.17,0,0,0-4.32,4.52,6.74,6.74,0,0,0-.44,2.11A9.66,9.66,0,0,0,48,51a19.57,19.57,0,0,0-8.81-1.48,92.94,92.94,0,0,0-10.28.94v-9a3,3,0,0,0-.84-2.1,2.56,2.56,0,0,0-.72-.55,6.55,6.55,0,0,1,3.54-1.5,9.18,9.18,0,0,1,5.85,1.42l.81.49V46A.72.72,0,1,0,39,46V40a8,8,0,0,0,3.41.81,9,9,0,0,0,3.44-.75c3.23-1.31,4-4.55,4.25-6H70.18a.71.71,0,0,0,.72-.71V25.82a.72.72,0,0,0-.72-.72H63.05v-.25a2.57,2.57,0,0,0-2.56-2.57H59V20.52H70.18a.72.72,0,0,0,.72-.72V.72A.72.72,0,0,0,70.18,0H42.65a.71.71,0,0,0-.71.72V19.8a.71.71,0,0,0,.71.72H53.84v1.76h-1.5a2.57,2.57,0,0,0-2.56,2.57v.25H42.65a.71.71,0,0,0-.71.72v7.56a.71.71,0,0,0,.71.71h6a6,6,0,0,1-3.33,4.65A6.68,6.68,0,0,1,39,38.43V36.94a7.32,7.32,0,0,0-7.36-7.27H30.32A6.79,6.79,0,0,0,33,24.39V21.3a5.38,5.38,0,0,0-.11-1.14s0,0,0,0l-.34-7.6c0-1.87-5-2-6.51-2s-6.51.15-6.51,2v.06L19.16,20A6,6,0,0,0,19,21.3v3.05a6.74,6.74,0,0,0,2.66,5.32H18.36a5.93,5.93,0,0,0-.84.06h-.1a5.25,5.25,0,0,0-1.86.71l-.21.12h0l-9.69,7-2.75,2L2.2,40h0a4.69,4.69,0,0,0-.75.58,4.6,4.6,0,0,0-.13,6.5,4.71,4.71,0,0,0,3.25,1.45l13.72.89h0l3.22.15h.15a3.09,3.09,0,0,0,1.46-.36v2.08l-.6.08h0l-21.91,3a.7.7,0,0,0-.61.8.71.71,0,0,0,.8.62l21.1-2.85v3.16L9.25,56.4h0a4,4,0,0,0-3.77,4.19,4,4,0,0,0,.92,2.3H.74l-.14,0A.85.85,0,0,0,.34,63a.72.72,0,0,0-.26.31.87.87,0,0,0,0,.28.76.76,0,0,0,0,.15A.71.71,0,0,0,.15,64l.09.11a.72.72,0,0,0,.51.21H45.13a1,1,0,0,0,.24,0l1.56-.56.1,0,.37-.13,17.38-6.25,1.83-.66A2.17,2.17,0,0,1,69.37,58a2.11,2.11,0,0,1-1.32,2.69L66.9,61l-12.36,4.3L47.4,67.81l-2.17.75H.75a.73.73,0,0,0-.72.72A.72.72,0,0,0,.75,70h44.6a.67.67,0,0,0,.24,0l1.81-.63L55,66.69,66.9,62.56,68.52,62a3.54,3.54,0,0,0,2.06-1.83A3.49,3.49,0,0,0,70.72,57.46ZM43.37,19.08V1.44H69.46V19.08Zm14.19,1.44v1.76H55.27V20.52Zm-6.34,4.32a1.13,1.13,0,0,1,1.12-1.13h8.15a1.14,1.14,0,0,1,1.13,1.13v.26H51.22Zm-7.85,7.82V26.53H69.46v6.13Zm8.55,18.07A6.75,6.75,0,0,1,55.49,47c3.22-1.46,6.91-.34,8.23,2.49a5.22,5.22,0,0,1,.12,4.05,6.75,6.75,0,0,1-3.57,3.71l-.07,0a6.85,6.85,0,0,1-5.61,0,5.16,5.16,0,0,1-2.67-6.58ZM39.26,51a18.23,18.23,0,0,1,8.15,1.35c1.93.9,3.14,2.17,3.42,3.58a4.22,4.22,0,0,1,0,1.42,5.86,5.86,0,0,1-1.35,2.92,7.23,7.23,0,0,1-2.1,1.71,9.39,9.39,0,0,1-.9.42l-.27.09a8.55,8.55,0,0,1-2.79.44H37.93l7.16-1.07a.72.72,0,0,0-.21-1.42L28.27,62.89H23.35v-5.4L28,57.37h.09L39.7,55.6a.72.72,0,1,0-.22-1.42L28,55.93l-4.6.12V52.73c1.25-.16,2.45-.34,3.62-.52L28.26,52l.12,0A92.31,92.31,0,0,1,39.26,51ZM27.49,41.51v.86a2.15,2.15,0,0,0-.5-.19l-1.88-.51a4.28,4.28,0,0,0-.54-.12v0A1.51,1.51,0,0,1,26,40a1.41,1.41,0,0,1,1,.44A1.64,1.64,0,0,1,27.49,41.51Zm-4-13.83h4.94v1.46a5.54,5.54,0,0,1-2.3.53h-.35a5.5,5.5,0,0,1-2.29-.53Zm2.25,3.42h2.16L26,34.22,24.07,31.1Zm-5.32-7.38V21.3h0a16.34,16.34,0,0,0,5.2.7,19.9,19.9,0,0,0,5.89-.79v2.52L26,24.64h0Zm.46-11c.43-.29,2.2-.76,5.07-.76a12.2,12.2,0,0,1,5.08.76l.2,4.41.12,2.58-.12.05c-2.91,1.1-8.64,1-10.58.08l-.09-.05.12-2.66Zm-.39,12.46h0l5.35.89a.45.45,0,0,0,.23,0l5.35-.89h0a5.4,5.4,0,0,1-1.56,3V27a.72.72,0,0,0-.72-.72H22.81a.72.72,0,0,0-.72.72v1.17A5.41,5.41,0,0,1,20.53,25.19ZM13,47.65l-4.88-.32-1.86-.12L4.62,47.1a3.22,3.22,0,0,1-2.26-1,3.14,3.14,0,0,1-.9-2.28A3.16,3.16,0,0,1,3,41.21l0,0,.6-.43h0L6.09,39l7-5L16,31.91l.25-.17a4.6,4.6,0,0,1,1.52-.58l.05,0a5.46,5.46,0,0,1,.58,0h4l3,4.86a.71.71,0,0,0,.61.33h0a.72.72,0,0,0,.61-.34l3-4.85h2a5.88,5.88,0,0,1,5.92,5.84v.67l-.06,0a10.64,10.64,0,0,0-6.77-1.63,7.69,7.69,0,0,0-5.07,2.61,3,3,0,0,0-2.52,3l-.51.07-1.73.33-1.64-.23h0l-1.37-.23,1.45-.88a.72.72,0,0,0,.24-1,.73.73,0,0,0-1-.25L15.7,41.06l-1.25-.22L13,40.59,9.7,40a.73.73,0,0,0-.84.59.71.71,0,0,0,.59.83l3.56.62.81.14.63.1,1.53.27,2.33.4-.59,5-3.27-.21Zm9.84.06-.27.17a1.64,1.64,0,0,1-1,.27L19.16,48l.58-4.87,1.08.15h.23L22.9,43l.24,0a4,4,0,0,1,1.43.07l.17,0,1.88.51a1.17,1.17,0,0,1,.87,1.09v2a.7.7,0,0,1-.73.68l-2.13-.07h-.06a3.09,3.09,0,0,0-1.43.32A2.69,2.69,0,0,0,22.85,47.71Zm1.72,1h0l2.13.07a2.31,2.31,0,0,0,.78-.12v2l-.73.11-2.19.32ZM6.9,60.51a2.46,2.46,0,0,1,.63-1.81,2.57,2.57,0,0,1,1.78-.86l12.6-.32v5.37H9.29A2.54,2.54,0,0,1,6.9,60.51Zm44,.27a7.33,7.33,0,0,0,1.38-3.32,7.28,7.28,0,0,0,3.21,1.67Z"/><polygon class="cls-1" points="3.87 41.16 3.63 40.75 3.6 40.77 3.87 41.16"/></g></g></svg>