<svg xmlns="http://www.w3.org/2000/svg" viewBox="0 0 60 60"><defs><style>.cls-1{fill:#78c53c;}</style></defs><g id="Layer_2" data-name="Layer 2"><g id="Design"><path class="cls-1" d="M54.66,12.9a1.17,1.17,0,0,0-1.93,1.34,27.65,27.65,0,1,1-6.79-6.85,1.17,1.17,0,0,0,1.35-1.91,29.94,29.94,0,1,0,7.37,7.42Z"/><path class="cls-1" d="M51.23,8.8l0,0a1.17,1.17,0,0,0-1.65,0,1.18,1.18,0,0,0,0,1.66l0,0A1.17,1.17,0,1,0,51.23,8.8Z"/><path class="cls-1" d="M44.13,19.41h-10a2,2,0,0,1-2-2.05,1.18,1.18,0,0,0-2.35,0,4.4,4.4,0,0,0,4.39,4.39h10a2,2,0,0,1,2,2v.55a1.18,1.18,0,0,0,2.35,0v-.55A4.39,4.39,0,0,0,44.13,19.41Z"/><path class="cls-1" d="M45.13,47.45,12.55,14.87a1.18,1.18,0,0,0-.9-.34,1.16,1.16,0,0,0-.85.45A24.38,24.38,0,0,0,45,49.2a1.16,1.16,0,0,0,.45-.85A1.18,1.18,0,0,0,45.13,47.45Zm-23-18.39h1.28l4.22,4.22h-5.5ZM30,52A22,22,0,0,1,11.86,17.49l9.22,9.23H12.66a1.17,1.17,0,0,0-1.18,1.17v6.56a1.17,1.17,0,0,0,1.18,1.17H30L42.51,48.14A21.91,21.91,0,0,1,30,52Zm-10.22-23v4.22h-6V29.06Z"/><path class="cls-1" d="M23.38,17.75a1.17,1.17,0,0,0-1.65,0,1.16,1.16,0,0,0,0,1.66,1.17,1.17,0,0,0,1.65,0,1.16,1.16,0,0,0,0-1.66Z"/><path class="cls-1" d="M47.24,12.76A24.38,24.38,0,0,0,15,10.8a1.2,1.2,0,0,0-.45.85,1.18,1.18,0,0,0,.34.9L19,16.67A1.17,1.17,0,0,0,20.64,15l-3.15-3.15A22,22,0,0,1,48.14,42.51l-6.88-6.89h6.08a1.17,1.17,0,0,0,1.18-1.17V27.89a1.17,1.17,0,0,0-1.18-1.17h-15l-6.18-6.17a1.17,1.17,0,0,0-1.66,1.65L47.45,45.13a1.17,1.17,0,0,0,.83.34h.07A1.2,1.2,0,0,0,49.2,45,24.38,24.38,0,0,0,47.24,12.76Zm-3.53,16.3h2.46v4.22H43.71Zm-9,0h6.67v4.22H38.92Z"/></g></g></svg>