<svg xmlns="http://www.w3.org/2000/svg" viewBox="0 0 42.04 60"><defs><style>.cls-1{fill:#78c53c;}</style></defs><g id="Layer_2" data-name="Layer 2"><g id="Design"><g id="g4655"><g id="g4657"><g id="g4663"><path class="cls-1" d="M30.2,13.84H11.84A2.24,2.24,0,0,1,9.61,11.6V9.87A.87.87,0,0,1,10.48,9H13.1a.88.88,0,0,1,0,1.75H11.36v.85a.48.48,0,0,0,.48.49H30.2a.49.49,0,0,0,.49-.49v-.85H17.2A.88.88,0,1,1,17.2,9H31.56a.87.87,0,0,1,.88.87V11.6A2.25,2.25,0,0,1,30.2,13.84Z"/></g><g id="g4667"><path class="cls-1" d="M31.56,10.75a.88.88,0,0,1-.87-.88V4.75H24.56a1.45,1.45,0,0,1-1.44-1.23,2.12,2.12,0,0,0-4.19,0,1.47,1.47,0,0,1-1.45,1.22H11.36V9.87a.88.88,0,1,1-1.75,0V4.55A1.55,1.55,0,0,1,11.16,3h6.09A3.88,3.88,0,0,1,24.8,3h6.08a1.56,1.56,0,0,1,1.56,1.55V9.87A.88.88,0,0,1,31.56,10.75ZM24.84,3.24Z"/></g><g id="g4671"><path class="cls-1" d="M21,4.74a.86.86,0,0,1-.62-.25.88.88,0,0,1-.18-.29.72.72,0,0,1-.07-.33.75.75,0,0,1,.07-.33.75.75,0,0,1,.18-.28.89.89,0,0,1,1.23,0,.8.8,0,0,1,.2.28.75.75,0,0,1,.07.33.88.88,0,0,1-.07.33.94.94,0,0,1-.2.29A.82.82,0,0,1,21,4.74Z"/></g><g id="g4675"><path class="cls-1" d="M40.33,60H1.72A1.72,1.72,0,0,1,0,58.28V45.13a.88.88,0,0,1,1.75,0V58.28l38.58,0,0-52.85-8.74,0a.88.88,0,0,1,0-1.75h8.77A1.72,1.72,0,0,1,42,5.4V58.28A1.72,1.72,0,0,1,40.33,60Z"/></g><g id="g4679"><path class="cls-1" d="M.87,41.91A.88.88,0,0,1,0,41V5.4A1.72,1.72,0,0,1,1.72,3.68h8.76a.88.88,0,1,1,0,1.75H1.72l0,35.6A.88.88,0,0,1,.87,41.91Z"/></g><g id="g4683"><path class="cls-1" d="M38.24,20.39a.88.88,0,0,1-.87-.88V8.42l-5.81-.06a.88.88,0,0,1,0-1.75H37.3a1.81,1.81,0,0,1,1.81,1.81V19.51A.88.88,0,0,1,38.24,20.39Z"/></g><g id="g4687"><path class="cls-1" d="M26.21,57.07H4.75a1.83,1.83,0,0,1-1.82-1.82V8.42A1.82,1.82,0,0,1,4.75,6.61h5.73a.88.88,0,1,1,0,1.75H4.75L4.68,55.25l21.53.07a4.12,4.12,0,0,0,4.11-4.11V50.09a1.82,1.82,0,0,1,1.81-1.82h1.13a4.12,4.12,0,0,0,4.11-4.11V23.61a.87.87,0,0,1,1.74,0V44.16A5.86,5.86,0,0,1,33.26,50H32.13l-.07,1.19A5.86,5.86,0,0,1,26.21,57.07Z"/></g><g id="g4691"><path class="cls-1" d="M22.7,28.27H19.34a1.2,1.2,0,0,1-1.19-1.19V24.51H15.59a1.19,1.19,0,0,1-1.19-1.19V20a1.19,1.19,0,0,1,1.19-1.19h2.56V16.21A1.19,1.19,0,0,1,19.34,15H22.7a1.19,1.19,0,0,1,1.19,1.19v2.57h2.57A1.19,1.19,0,0,1,27.65,20v3.35a1.19,1.19,0,0,1-1.19,1.19H23.89v2.57A1.19,1.19,0,0,1,22.7,28.27Zm-2.8-1.75h2.24V24a1.2,1.2,0,0,1,1.19-1.19H25.9V20.52H23.33a1.19,1.19,0,0,1-1.19-1.19V16.77H19.9v2.56a1.19,1.19,0,0,1-1.19,1.19H16.15v2.24h2.56A1.19,1.19,0,0,1,19.9,24Zm6.56-6h0Z"/></g><g id="g4695"><path class="cls-1" d="M12.29,35.84h-3A1.24,1.24,0,0,1,8.07,34.6v-3a1.25,1.25,0,0,1,1.24-1.24h3a1.25,1.25,0,0,1,1.24,1.24v3A1.24,1.24,0,0,1,12.29,35.84ZM9.82,34.09h2v-2h-2Z"/></g><g id="g4699"><path class="cls-1" d="M12.29,43.82h-3a1.25,1.25,0,0,1-1.24-1.24v-3a1.25,1.25,0,0,1,1.24-1.24h3a1.25,1.25,0,0,1,1.24,1.24v3A1.25,1.25,0,0,1,12.29,43.82ZM9.82,42.07h2v-2h-2Z"/></g><g id="g4703"><path class="cls-1" d="M12.29,51.79h-3a1.24,1.24,0,0,1-1.24-1.24v-3a1.25,1.25,0,0,1,1.24-1.24h3a1.25,1.25,0,0,1,1.24,1.24v3A1.24,1.24,0,0,1,12.29,51.79ZM9.82,50h2v-2h-2Z"/></g><g id="g4707"><path class="cls-1" d="M33.1,33.88H15.86a.88.88,0,1,1,0-1.75H33.1a.88.88,0,0,1,0,1.75Z"/></g><g id="g4711"><path class="cls-1" d="M33.1,42H15.86a.88.88,0,1,1,0-1.75H33.1a.88.88,0,0,1,0,1.75Z"/></g><g id="g4715"><path class="cls-1" d="M31.63,50.16H15.86a.87.87,0,1,1,0-1.74H31.63a.87.87,0,1,1,0,1.74Z"/></g><g id="g4719"><path class="cls-1" d="M26.21,57.07a.88.88,0,1,1,0-1.75A11.16,11.16,0,0,0,37.37,44.16a.87.87,0,1,1,1.74,0,12.91,12.91,0,0,1-12.9,12.91Z"/></g></g></g></g></g></svg>