<?xml version="1.0" encoding="UTF-8"?>
<svg id="Layer_2" data-name="Layer 2" xmlns="http://www.w3.org/2000/svg" viewBox="0 0 15.16 15.3">
  <defs>
    <style>
      .cls-1 {
        fill: #ffda4d;
      }
    </style>
  </defs>
  <g id="design">
    <g>
      <g>
        <path class="cls-1" d="m6.81,8.85c-.13,0-.26-.05-.35-.15-.2-.2-.2-.51,0-.71L13.87.58c.2-.2.51-.2.71,0s.2.51,0,.71l-7.41,7.41c-.1.1-.23.15-.35.15Z"/>
        <path class="cls-1" d="m14.11,4.94s-.05,0-.07,0c-.27-.04-.46-.29-.43-.56l.45-3.29-3.29.45c-.28.04-.53-.15-.56-.43-.04-.27.15-.53.43-.56L14.59,0c.16-.02.31.03.42.14s.16.27.14.42l-.54,3.94c-.03.25-.25.43-.49.43Z"/>
      </g>
      <path class="cls-1" d="m13,13.65c0,.36-.29.65-.65.65H1.65c-.36,0-.65-.29-.65-.65V2.95c0-.36.29-.65.65-.65h6.35v-1H1.65c-.91,0-1.65.74-1.65,1.65v10.7c0,.91.74,1.65,1.65,1.65h10.7c.91,0,1.65-.74,1.65-1.65v-6.35h-1v6.35Z"/>
    </g>
  </g>
</svg>