<svg xmlns="http://www.w3.org/2000/svg" viewBox="0 0 73.1 50"><defs><style>.cls-1{fill:#78c53c}</style></defs><g id="Layer_2" data-name="Layer 2"><g id="Design"><path class="cls-1" d="M70.51 31.23h-2.72a2.61 2.61 0 00-2.59 2.6v2.84h-1.61v-6.92a9.39 9.39 0 00-9.38-9.38h-16.3a1.7 1.7 0 01-1.43-.77 4.17 4.17 0 00-5-1.58l-.11.05-1.76-3.53a6.66 6.66 0 00-5.38-3.64H24l.14-.18a6.67 6.67 0 00-1.26-9.33 6.65 6.65 0 00-9.33 1.25 6.66 6.66 0 000 8.12l.13.17h-.2a5.28 5.28 0 00-4.3 6.09l.06.31 2.55 11-1 .51-.22.15c-1.82 1.54-1.5 4 .95 7.24l.29.39h-4V20.24a2.6 2.6 0 00-2.59-2.59H2.59A2.59 2.59 0 000 20.24v27.17A2.59 2.59 0 002.59 50h2.72a2.59 2.59 0 002.59-2.59v-1.48h57.3v1.48A2.6 2.6 0 0067.79 50h2.72a2.59 2.59 0 002.59-2.59V33.83a2.61 2.61 0 00-2.59-2.6zM31.65 20.76a1.14 1.14 0 00.23-.15 1.72 1.72 0 012.43.2.91.91 0 01.11.16 4.5 4.5 0 00.61.7l.12.11-7.56 4.41a1.23 1.23 0 101.25 2.13l9.4-5.49h16a7 7 0 016.92 6.92v6.92H15l-1.4-1.87c-1-1.32-2-3-1.43-3.78zM14.73 6.13a4.2 4.2 0 014.16-3.67 4.58 4.58 0 01.53 0 4.2 4.2 0 01-.52 8.37 3.27 3.27 0 01-.54 0 4.18 4.18 0 01-3.63-4.69zm-3 10.68a2.85 2.85 0 012.76-3.49h9.2a4.14 4.14 0 013.74 2.33l1.8 3.59-15.11 8v-.16zm58.9 30.72h-3v-2.84a1.23 1.23 0 00-1.23-1.23H6.67a1.24 1.24 0 00-1.24 1.23v2.84h-3V20.12h3V37.9a1.23 1.23 0 001.24 1.23h59.77a1.2 1.2 0 00.87-.36 1.23 1.23 0 00.36-.87v-4.2h3z"/><path class="cls-1" d="M23.4 31.52l.38-.22a1.25 1.25 0 00.44-1.69 1.27 1.27 0 00-.75-.57 1.17 1.17 0 00-.32 0 1.26 1.26 0 00-.62.17l-.37.22a1.23 1.23 0 001.24 2.13z"/></g></g></svg>