<svg xmlns="http://www.w3.org/2000/svg" viewBox="0 0 42.04 60"><defs><style>.cls-1{fill:#78c53c}</style></defs><g id="Layer_2" data-name="Layer 2"><g id="Design"><g id="g4655"><g id="g4657"><path class="cls-1" d="M30.2 13.84H11.84a2.24 2.24 0 01-2.23-2.24V9.87a.87.87 0 01.87-.87h2.62a.88.88 0 010 1.75h-1.74v.85a.48.48 0 00.48.49H30.2a.49.49 0 00.49-.49v-.85H17.2a.88.88 0 110-1.75h14.36a.87.87 0 01.88.87v1.73a2.25 2.25 0 01-2.24 2.24z" id="g4663"/><path class="cls-1" d="M31.56 10.75a.88.88 0 01-.87-.88V4.75h-6.13a1.45 1.45 0 01-1.44-1.23 2.12 2.12 0 00-4.19 0 1.47 1.47 0 01-1.45 1.22h-6.12v5.13a.88.88 0 11-1.75 0V4.55A1.55 1.55 0 0111.16 3h6.09a3.88 3.88 0 017.55 0h6.08a1.56 1.56 0 011.56 1.55v5.32a.88.88 0 01-.88.88zm-6.72-7.51z" id="g4667"/><path class="cls-1" d="M21 4.74a.86.86 0 01-.62-.25.88.88 0 01-.18-.29.72.72 0 01-.07-.33.75.75 0 01.07-.33.75.75 0 01.18-.28.89.89 0 011.23 0 .8.8 0 01.2.28.75.75 0 01.07.33.88.88 0 01-.07.33.94.94 0 01-.2.29.82.82 0 01-.61.25z" id="g4671"/><path class="cls-1" d="M40.33 60H1.72A1.72 1.72 0 010 58.28V45.13a.88.88 0 011.75 0v13.15h38.58V5.43h-8.74a.88.88 0 010-1.75h8.77A1.72 1.72 0 0142 5.4v52.88A1.72 1.72 0 0140.33 60z" id="g4675"/><path class="cls-1" d="M.87 41.91A.88.88 0 010 41V5.4a1.72 1.72 0 011.72-1.72h8.76a.88.88 0 110 1.75H1.72v35.6a.88.88 0 01-.85.88z" id="g4679"/><path class="cls-1" d="M38.24 20.39a.88.88 0 01-.87-.88V8.42l-5.81-.06a.88.88 0 010-1.75h5.74a1.81 1.81 0 011.81 1.81v11.09a.88.88 0 01-.87.88z" id="g4683"/><path class="cls-1" d="M26.21 57.07H4.75a1.83 1.83 0 01-1.82-1.82V8.42a1.82 1.82 0 011.82-1.81h5.73a.88.88 0 110 1.75H4.75l-.07 46.89 21.53.07a4.12 4.12 0 004.11-4.11v-1.12a1.82 1.82 0 011.81-1.82h1.13a4.12 4.12 0 004.11-4.11V23.61a.87.87 0 011.74 0v20.55A5.86 5.86 0 0133.26 50h-1.13l-.07 1.19a5.86 5.86 0 01-5.85 5.88z" id="g4687"/><path class="cls-1" d="M22.7 28.27h-3.36a1.2 1.2 0 01-1.19-1.19v-2.57h-2.56a1.19 1.19 0 01-1.19-1.19V20a1.19 1.19 0 011.19-1.19h2.56v-2.6A1.19 1.19 0 0119.34 15h3.36a1.19 1.19 0 011.19 1.19v2.57h2.57A1.19 1.19 0 0127.65 20v3.35a1.19 1.19 0 01-1.19 1.19h-2.57v2.57a1.19 1.19 0 01-1.19 1.16zm-2.8-1.75h2.24V24a1.2 1.2 0 011.19-1.19h2.57v-2.29h-2.57a1.19 1.19 0 01-1.19-1.19v-2.56H19.9v2.56a1.19 1.19 0 01-1.19 1.19h-2.56v2.24h2.56A1.19 1.19 0 0119.9 24zm6.56-6z" id="g4691"/><path class="cls-1" d="M12.29 35.84h-3a1.24 1.24 0 01-1.22-1.24v-3a1.25 1.25 0 011.24-1.24h3a1.25 1.25 0 011.24 1.24v3a1.24 1.24 0 01-1.26 1.24zm-2.47-1.75h2v-2h-2z" id="g4695"/><path class="cls-1" d="M12.29 43.82h-3a1.25 1.25 0 01-1.24-1.24v-3a1.25 1.25 0 011.24-1.24h3a1.25 1.25 0 011.24 1.24v3a1.25 1.25 0 01-1.24 1.24zm-2.47-1.75h2v-2h-2z" id="g4699"/><path class="cls-1" d="M12.29 51.79h-3a1.24 1.24 0 01-1.24-1.24v-3a1.25 1.25 0 011.24-1.24h3a1.25 1.25 0 011.24 1.24v3a1.24 1.24 0 01-1.24 1.24zM9.82 50h2v-2h-2z" id="g4703"/><path class="cls-1" d="M33.1 33.88H15.86a.88.88 0 110-1.75H33.1a.88.88 0 010 1.75z" id="g4707"/><path class="cls-1" d="M33.1 42H15.86a.88.88 0 110-1.75H33.1a.88.88 0 010 1.75z" id="g4711"/><path class="cls-1" d="M31.63 50.16H15.86a.87.87 0 110-1.74h15.77a.87.87 0 110 1.74z" id="g4715"/><path class="cls-1" d="M26.21 57.07a.88.88 0 110-1.75 11.16 11.16 0 0011.16-11.16.87.87 0 111.74 0 12.91 12.91 0 01-12.9 12.91z" id="g4719"/></g></g></g></g></svg>