<svg xmlns="http://www.w3.org/2000/svg" viewBox="0 0 49.22 60"><path d="M44 53.85a.88.88 0 10.87.88.87.87 0 00-.87-.88zm2.63-3.69v-5.07a9.08 9.08 0 00-1.47-5 .88.88 0 00-1.22-.25.87.87 0 00-.25 1.22 7.27 7.27 0 011.18 4v4.44a4.83 4.83 0 00-1.75 0v-4.41a5.53 5.53 0 00-11 0v5.07a7.28 7.28 0 01-14.56 0v-2.61a2.66 2.66 0 001.76 0v2.61a5.52 5.52 0 0011 0v-5.07A7.29 7.29 0 0141 38.66a.88.88 0 10.83-1.55 9 9 0 00-13.28 8v5.07a3.77 3.77 0 11-7.53 0v-12A18.35 18.35 0 0036.68 20a2.66 2.66 0 00-1.76-2.49V9.08a6.66 6.66 0 00-4.86-6.43A3.29 3.29 0 0026.84 0h-1.76a3.28 3.28 0 100 6.56h1.76a3.28 3.28 0 003.06-2.11 4.9 4.9 0 013.26 4.63v8.44a2.69 2.69 0 00-1.75 2.53A13.07 13.07 0 0110.05 30.1a.88.88 0 10-1.12 1.35 14.81 14.81 0 0024.23-11.39.93.93 0 01.83-.93.89.89 0 01.93.88 16.58 16.58 0 01-14.61 16.46 1.24 1.24 0 00-1.09 1.22v7.37a.9.9 0 01-.92.88.92.92 0 01-.84-.93v-7.32a1.24 1.24 0 00-1.09-1.22A16.58 16.58 0 011.76 20a.89.89 0 01.93-.88.93.93 0 01.83.93A14.77 14.77 0 006 28.28a.88.88 0 001.22.24.87.87 0 00.28-1.22 13 13 0 01-2.23-7.25 2.69 2.69 0 00-1.75-2.53V9.08a4.9 4.9 0 013.26-4.63 3.28 3.28 0 003.06 2.11h1.76a3.28 3.28 0 100-6.56H9.84a3.29 3.29 0 00-3.22 2.65 6.66 6.66 0 00-4.86 6.43v8.44A2.66 2.66 0 000 20a18.35 18.35 0 0015.7 18.16v12a9 9 0 0018.08 0v-5.07a3.77 3.77 0 117.53 0v5.07a5.28 5.28 0 105.27 0zM26.84 4.8h-1.76a1.52 1.52 0 110-3h1.76a1.52 1.52 0 010 3zm-17-3h1.76a1.52 1.52 0 010 3H9.84a1.52 1.52 0 110-3zM44 58.24a3.52 3.52 0 113.51-3.51A3.52 3.52 0 0144 58.24z" fill="#78c53c" data-name="Layer 2"/></svg>