<svg xmlns="http://www.w3.org/2000/svg" viewBox="0 0 60 60"><defs><style>.cls-1{fill:#78c53c}</style></defs><g id="Layer_2" data-name="Layer 2"><g id="Design"><path class="cls-1" d="M27.25 20.65a3.17 3.17 0 10-3.17 3.16 3.16 3.16 0 003.17-3.16zm-4.57 0a1.41 1.41 0 111.4 1.41 1.41 1.41 0 01-1.4-1.41zm13.05 7.55A3.17 3.17 0 1038.9 25a3.17 3.17 0 00-3.17 3.2zm3.17-1.4a1.41 1.41 0 11-1.41 1.4 1.4 1.4 0 011.41-1.4zM19.6 36.89a4.49 4.49 0 104.48-4.48 4.49 4.49 0 00-4.48 4.48zm4.48-2.73a2.73 2.73 0 11-2.72 2.73 2.74 2.74 0 012.72-2.73z"/><path class="cls-1" d="M56.84 26.84a3.12 3.12 0 00-3 2.28H50c-.5-1.64-1.46-2.42-1.66-3.31-.26-1.16.62-3-.12-4.58s-2.8-2.06-3.51-3a3.81 3.81 0 01-.55-1.18l6.77-6.78a3.53 3.53 0 001.86.59 3.69 3.69 0 10-2.61-6.3 3.64 3.64 0 00-.49 4.47l-6.23 6.27a3.23 3.23 0 00-2.79-1.84.88.88 0 00-.25 1.74c1.25.18 1.43.53 1.95 2.09a4.78 4.78 0 002.77 3.47c1.7 1 1.77 1.21 1.52 3.13a4.84 4.84 0 001 4.33c1.1 1.66 1.1 1.9 0 3.56a4.82 4.82 0 00-1 4.33c.25 1.92.17 2.11-1.52 3.13a4.78 4.78 0 00-2.77 3.47c-.61 1.87-.78 2-2.72 2.17a4.81 4.81 0 00-4 1.93c-1.37 1.43-1.58 1.46-3.38.79a6.52 6.52 0 00-2.27-.55c-1.57 0-3.16 1.16-4.11 1a3.87 3.87 0 01-1.54-1.19 4.81 4.81 0 00-4-1.93c-1.94-.18-2.11-.3-2.72-2.17a4.78 4.78 0 00-2.77-3.47c-1.7-1-1.77-1.21-1.52-3.13a4.82 4.82 0 00-1-4.33c-1.1-1.66-1.1-1.9 0-3.56a4.82 4.82 0 001-4.33c-.25-1.92-.18-2.11 1.52-3.13a6.3 6.3 0 001.81-1.39 6.46 6.46 0 001-2.08 3.84 3.84 0 01.86-1.72 3.77 3.77 0 011.86-.45 4.81 4.81 0 004-1.93c1.37-1.43 1.58-1.46 3.38-.79a5 5 0 004.54 0c2.22-.83 2.06-.46 3.89 1.32a.88.88 0 101.23-1.26c-.16-.15-.31-.31-.47-.48-1.91-2-2.84-2.13-5.26-1.23-.27.1-.53.2-.78.27V6.15a3.12 3.12 0 002.28-3 3.16 3.16 0 10-6.32 0 3.12 3.12 0 002.28 3V11c-.25-.07-.51-.17-.78-.27C25.92 9.85 25 10 23.08 12a5 5 0 01-1.24 1.07 5.31 5.31 0 01-1.65.32c-1.77.16-2.84.39-3.65 1.93l-4.91-4.91a3.86 3.86 0 00-.5-4.77 3.92 3.92 0 00-5.51 0c-3.14 3.15.7 8.51 4.77 6l5.45 5.46c-.41 1.22-.57 1.38-1.88 2.17-2.33 1.39-2.71 2.25-2.36 4.86a5.49 5.49 0 01.06 1.69c-.2.89-1.16 1.67-1.66 3.31H6.15a3.12 3.12 0 00-3-2.28 3.16 3.16 0 100 6.32 3.12 3.12 0 003-2.28H10c.5 1.64 1.46 2.42 1.66 3.31.26 1.16-.62 3 .12 4.58s2.8 2.06 3.52 3a3.81 3.81 0 01.54 1.18l-3.33 3.33a3.11 3.11 0 00-3.72.5A3.16 3.16 0 0011 52.14a3.12 3.12 0 002.74-4.65l2.79-2.79c1.3 2.51 3.92 1.59 5.29 2.25 1 .5 2 2.37 3.66 2.76 1.27.29 2.49-.38 3.62-.73v4.87a3.12 3.12 0 00-2.28 3 3.16 3.16 0 106.32 0 3.12 3.12 0 00-2.28-3V49c1.15.35 2.35 1 3.62.73 1.69-.38 2.63-2.26 3.66-2.76 1.39-.67 4 .27 5.3-2.25l.92.92a.88.88 0 001.24-1.24l-1.46-1.47c.41-1.23.57-1.38 1.88-2.17 2.33-1.39 2.71-2.25 2.36-4.86a3.24 3.24 0 01.7-3.13 7.19 7.19 0 00.9-1.87h3.85a3.12 3.12 0 003 2.28 3.16 3.16 0 000-6.32zM52.79 5.27a1.93 1.93 0 11-1.36 3.3 1.94 1.94 0 011.36-3.3zm-24.2-2.11A1.41 1.41 0 1130 4.57a1.41 1.41 0 01-1.41-1.41zM6.87 9.89a2.14 2.14 0 113 0 2.12 2.12 0 01-3 0zM3.16 31.41A1.41 1.41 0 114.57 30a1.41 1.41 0 01-1.41 1.41zM12 50a1.41 1.41 0 11-1-2.4 1.41 1.41 0 011 2.4zm19.39 6.87A1.41 1.41 0 1130 55.43a1.41 1.41 0 011.41 1.41zm25.45-25.46a1.41 1.41 0 111.4-1.41 1.41 1.41 0 01-1.4 1.41zm-7.18 17l-1.5-1.5a.88.88 0 00-1.25 1.25l1.5 1.5a3.77 3.77 0 00.5 4.65 3.82 3.82 0 005.4-5.4 3.77 3.77 0 00-4.65-.5zm3.41 4.66a2.06 2.06 0 110-2.92 2.08 2.08 0 010 2.92z"/></g></g></svg>