<svg xmlns="http://www.w3.org/2000/svg" viewBox="0 0 70.93 70"><defs><style>.cls-1{fill:#78c53c}</style></defs><g id="Layer_2" data-name="Layer 2"><g id="Design"><path class="cls-1" d="M70.72 57.46a3.62 3.62 0 00-4.58-2.17l-2.06.71a7.26 7.26 0 001.1-2 6.58 6.58 0 00-.18-5.1c-1.64-3.54-6.19-5-10.12-3.19a8.17 8.17 0 00-4.32 4.52 6.74 6.74 0 00-.44 2.11A9.66 9.66 0 0048 51a19.57 19.57 0 00-8.81-1.48 92.94 92.94 0 00-10.28.94v-9a3 3 0 00-.84-2.1 2.56 2.56 0 00-.72-.55 6.55 6.55 0 013.54-1.5 9.18 9.18 0 015.85 1.42l.81.49V46A.72.72 0 1039 46v-6a8 8 0 003.41.81 9 9 0 003.44-.75c3.23-1.31 4-4.55 4.25-6h20.08a.71.71 0 00.72-.71v-7.53a.72.72 0 00-.72-.72h-7.13v-.25a2.57 2.57 0 00-2.56-2.57H59v-1.76h11.18a.72.72 0 00.72-.72V.72a.72.72 0 00-.72-.72H42.65a.71.71 0 00-.71.72V19.8a.71.71 0 00.71.72h11.19v1.76h-1.5a2.57 2.57 0 00-2.56 2.57v.25h-7.13a.71.71 0 00-.71.72v7.56a.71.71 0 00.71.71h6a6 6 0 01-3.33 4.65 6.68 6.68 0 01-6.32-.31v-1.49a7.32 7.32 0 00-7.36-7.27h-1.32A6.79 6.79 0 0033 24.39V21.3a5.38 5.38 0 00-.11-1.14l-.34-7.6c0-1.87-5-2-6.51-2s-6.51.15-6.51 2v.06L19.16 20a6 6 0 00-.16 1.3v3.05a6.74 6.74 0 002.66 5.32h-3.3a5.93 5.93 0 00-.84.06h-.1a5.25 5.25 0 00-1.86.71l-.21.12-9.69 7-2.75 2-.71.44a4.69 4.69 0 00-.75.58 4.6 4.6 0 00-.13 6.5 4.71 4.71 0 003.25 1.45l13.72.89 3.22.15h.15a3.09 3.09 0 001.46-.36v2.08l-.6.08-21.91 3a.7.7 0 00-.61.8.71.71 0 00.8.62l21.1-2.85v3.16l-12.65.3a4 4 0 00-3.77 4.19 4 4 0 00.92 2.3H.6a.85.85 0 00-.26.11.72.72 0 00-.26.31.87.87 0 000 .28.76.76 0 000 .15.71.71 0 00.07.26l.09.11a.72.72 0 00.51.21h44.38a1 1 0 00.24 0l1.56-.56h.1l.37-.13 17.38-6.25 1.83-.66A2.17 2.17 0 0169.37 58a2.11 2.11 0 01-1.32 2.69L66.9 61l-12.36 4.3-7.14 2.51-2.17.75H.75a.73.73 0 00-.72.72.72.72 0 00.72.72h44.6a.67.67 0 00.24 0l1.81-.63 7.6-2.68 11.9-4.13 1.62-.56a3.54 3.54 0 002.06-1.83 3.49 3.49 0 00.14-2.71zM43.37 19.08V1.44h26.09v17.64zm14.19 1.44v1.76h-2.29v-1.76zm-6.34 4.32a1.13 1.13 0 011.12-1.13h8.15a1.14 1.14 0 011.13 1.13v.26h-10.4zm-7.85 7.82v-6.13h26.09v6.13zm8.55 18.07A6.75 6.75 0 0155.49 47c3.22-1.46 6.91-.34 8.23 2.49a5.22 5.22 0 01.12 4.05 6.75 6.75 0 01-3.57 3.71h-.07a6.85 6.85 0 01-5.61 0 5.16 5.16 0 01-2.67-6.58zM39.26 51a18.23 18.23 0 018.15 1.35c1.93.9 3.14 2.17 3.42 3.58a4.22 4.22 0 010 1.42 5.86 5.86 0 01-1.35 2.92 7.23 7.23 0 01-2.1 1.71 9.39 9.39 0 01-.9.42l-.27.09a8.55 8.55 0 01-2.79.44h-5.49l7.16-1.07a.72.72 0 00-.21-1.42l-16.61 2.45h-4.92v-5.4l4.65-.12h.09L39.7 55.6a.72.72 0 10-.22-1.42L28 55.93l-4.6.12v-3.32c1.25-.16 2.45-.34 3.62-.52l1.24-.21h.12a92.31 92.31 0 0110.88-1zm-11.77-9.49v.86a2.15 2.15 0 00-.5-.19l-1.88-.51a4.28 4.28 0 00-.54-.12A1.51 1.51 0 0126 40a1.41 1.41 0 011 .44 1.64 1.64 0 01.49 1.07zm-4-13.83h4.94v1.46a5.54 5.54 0 01-2.3.53h-.35a5.5 5.5 0 01-2.29-.53zm2.25 3.42h2.16L26 34.22l-1.93-3.12zm-5.32-7.38V21.3a16.34 16.34 0 005.2.7 19.9 19.9 0 005.89-.79v2.52l-5.51.91zm.46-11c.43-.29 2.2-.76 5.07-.76a12.2 12.2 0 015.08.76l.2 4.41.12 2.58-.12.05c-2.91 1.1-8.64 1-10.58.08l-.09-.05.12-2.66zm-.39 12.46l5.35.89a.45.45 0 00.23 0l5.35-.89a5.4 5.4 0 01-1.56 3V27a.72.72 0 00-.72-.72h-6.33a.72.72 0 00-.72.72v1.17a5.41 5.41 0 01-1.56-2.98zM13 47.65l-4.88-.32-1.86-.12-1.64-.11a3.22 3.22 0 01-2.26-1 3.14 3.14 0 01-.9-2.28A3.16 3.16 0 013 41.21l.6-.43L6.09 39l7-5L16 31.91l.25-.17a4.6 4.6 0 011.52-.58h.05a5.46 5.46 0 01.58 0h4l3 4.86a.71.71 0 00.61.33.72.72 0 00.61-.34l3-4.85h2A5.88 5.88 0 0137.54 37v.67h-.06a10.64 10.64 0 00-6.77-1.63 7.69 7.69 0 00-5.07 2.61 3 3 0 00-2.52 3l-.51.07-1.73.33-1.64-.23-1.37-.23 1.45-.88a.72.72 0 00.24-1 .73.73 0 00-1-.25l-2.86 1.6-1.25-.22-1.45-.25L9.7 40a.73.73 0 00-.84.59.71.71 0 00.59.83l3.56.62.81.14.63.1 1.53.27 2.33.4-.59 5-3.27-.21zm9.84.06l-.27.17a1.64 1.64 0 01-1 .27L19.16 48l.58-4.87 1.08.15h.23L22.9 43h.24a4 4 0 011.43.07h.17l1.88.51a1.17 1.17 0 01.87 1.09v2a.7.7 0 01-.73.68l-2.13-.07h-.06a3.09 3.09 0 00-1.43.32 2.69 2.69 0 00-.29.11zm1.72 1l2.13.07a2.31 2.31 0 00.78-.12v2l-.73.11-2.19.32zM6.9 60.51a2.46 2.46 0 01.63-1.81 2.57 2.57 0 011.78-.86l12.6-.32v5.37H9.29a2.54 2.54 0 01-2.39-2.38zm44 .27a7.33 7.33 0 001.38-3.32 7.28 7.28 0 003.21 1.67z"/><path class="cls-1" d="M3.87 41.16l-.24-.41-.03.02.27.39z"/></g></g></svg>