<svg xmlns="http://www.w3.org/2000/svg" viewBox="0 0 60 60"><defs><style>.cls-1{fill:#78c53c}</style></defs><g id="Layer_2" data-name="Layer 2"><g id="Design"><path class="cls-1" d="M54.66 12.9a1.17 1.17 0 00-1.93 1.34 27.65 27.65 0 11-6.79-6.85 1.17 1.17 0 001.35-1.91 29.94 29.94 0 107.37 7.42z"/><path class="cls-1" d="M51.23 8.8a1.17 1.17 0 00-1.65 0 1.18 1.18 0 000 1.66 1.17 1.17 0 101.65-1.66zm-7.1 10.61h-10a2 2 0 01-2-2.05 1.18 1.18 0 00-2.35 0 4.4 4.4 0 004.39 4.39h10a2 2 0 012 2v.55a1.18 1.18 0 002.35 0v-.55a4.39 4.39 0 00-4.39-4.34zm1 28.04L12.55 14.87a1.18 1.18 0 00-.9-.34 1.16 1.16 0 00-.85.45A24.38 24.38 0 0045 49.2a1.16 1.16 0 00.45-.85 1.18 1.18 0 00-.32-.9zm-23-18.39h1.28l4.22 4.22h-5.5zM30 52a22 22 0 01-18.14-34.51l9.22 9.23h-8.42a1.17 1.17 0 00-1.18 1.17v6.56a1.17 1.17 0 001.18 1.17H30l12.51 12.52A21.91 21.91 0 0130 52zM19.78 29v4.22h-6v-4.16zm3.6-11.25a1.17 1.17 0 00-1.65 0 1.16 1.16 0 000 1.66 1.17 1.17 0 001.65 0 1.16 1.16 0 000-1.66z"/><path class="cls-1" d="M47.24 12.76A24.38 24.38 0 0015 10.8a1.2 1.2 0 00-.45.85 1.18 1.18 0 00.34.9L19 16.67A1.17 1.17 0 0020.64 15l-3.15-3.15a22 22 0 0130.65 30.66l-6.88-6.89h6.08a1.17 1.17 0 001.18-1.17v-6.56a1.17 1.17 0 00-1.18-1.17h-15l-6.18-6.17a1.17 1.17 0 00-1.66 1.65l22.95 22.93a1.17 1.17 0 00.83.34h.07a1.2 1.2 0 00.85-.47 24.38 24.38 0 00-1.96-32.24zm-3.53 16.3h2.46v4.22h-2.46zm-9 0h6.67v4.22h-2.46z"/></g></g></svg>