<svg xmlns="http://www.w3.org/2000/svg" viewBox="0 0 59.94 60"><defs><style>.cls-1{fill:#78c53c}</style></defs><g id="Layer_2" data-name="Layer 2"><g id="Design"><path class="cls-1" d="M37.73 9.82l12.44 12.43-13.88 13.89a.86.86 0 000 1.24.88.88 0 001.24 0L56.9 18a10.56 10.56 0 002.63-4.34.88.88 0 00-.58-1.1.87.87 0 00-1.1.58 8.83 8.83 0 01-2.19 3.62l-1.09 1.09L42.14 5.42l1.09-1.09a8.79 8.79 0 0115 5.33.88.88 0 001.75-.18 10.55 10.55 0 00-18-6.4l-9.71 9.72a.88.88 0 000 1.24.86.86 0 001.24 0zm15.6 9.27L51.41 21 39 8.58l1.9-1.92zM5.62 59l6.46-6.46a25 25 0 017.82-4.93l9.1-3.24a11.26 11.26 0 004.09-2.59l1.69-1.7a.86.86 0 000-1.24.88.88 0 00-1.24 0l-1.69 1.69a9.38 9.38 0 01-3.44 2.18c-9.53 3.49-8.6 2.93-11.22 4.29A4 4 0 0113 42.8c1.33-2.62.78-1.68 4.27-11.26a9.32 9.32 0 012.17-3.44L30.8 16.75a.88.88 0 10-1.24-1.24L18.21 26.86A11.05 11.05 0 0015.62 31l-3.27 9.14a25.46 25.46 0 01-4.93 7.76C.63 54.7 1 54.37.8 54.55A3.29 3.29 0 005.62 59zm6.05-13.8a5.75 5.75 0 003.12 3.12c-3.62 2.21-4.62 3.83-6.38 5.43l-2.17-2.18c2.01-2.09 3.37-3 5.43-6.37zM2.14 57.74a1.6 1.6 0 01.11-2.17L5 52.82 7.17 55l-2.8 2.8a1.54 1.54 0 01-2.23 0z"/><path class="cls-1" d="M26.84 33.14a5.72 5.72 0 008.08 0l10.27-10.26a.88.88 0 000-1.25l-6.84-6.83a.86.86 0 00-1.24 0L26.84 25.06a5.72 5.72 0 000 8.08zm16.49-10.89l-9.65 9.65a4 4 0 01-5.59 0 3.94 3.94 0 010-5.59l9.64-9.65z"/><path class="cls-1" d="M34.92 26.31l3.42-3.42a.88.88 0 00-1.24-1.25l-3.42 3.42a.89.89 0 000 1.25.88.88 0 001.24 0zm-15.16 9.26a3.3 3.3 0 104.66 0 3.28 3.28 0 00-4.66 0zm3.42 1.24a1.54 1.54 0 11-2.18 0 1.55 1.55 0 012.18 0z"/></g></g></svg>