<svg xmlns="http://www.w3.org/2000/svg" viewBox="0 0 73.1 50"><defs><style>.cls-1{fill:#78c53c;}</style></defs><g id="Layer_2" data-name="Layer 2"><g id="Design"><path class="cls-1" d="M70.51,31.23H67.79a2.61,2.61,0,0,0-2.59,2.6v2.84H63.59V29.75a9.39,9.39,0,0,0-9.38-9.38H37.91a1.7,1.7,0,0,1-1.43-.77,4.17,4.17,0,0,0-5-1.58l-.11.05-1.76-3.53a6.66,6.66,0,0,0-5.38-3.64l-.23,0,.14-.18a6.67,6.67,0,0,0-1.26-9.33,6.65,6.65,0,0,0-9.33,1.25,6.66,6.66,0,0,0,0,8.12l0,0,.13.17-.2,0a5.28,5.28,0,0,0-4.3,6.09l.06.31,2.55,11-1,.51-.22.15c-1.82,1.54-1.5,4,.95,7.24l.29.39h-4V20.24a2.6,2.6,0,0,0-2.59-2.59H2.59A2.59,2.59,0,0,0,0,20.24V47.41A2.59,2.59,0,0,0,2.59,50H5.31A2.59,2.59,0,0,0,7.9,47.41V45.93H65.2v1.48A2.6,2.6,0,0,0,67.79,50h2.72a2.59,2.59,0,0,0,2.59-2.59V33.83A2.61,2.61,0,0,0,70.51,31.23ZM31.65,20.76a1.14,1.14,0,0,0,.23-.15,1.72,1.72,0,0,1,2.43.2.91.91,0,0,1,.11.16,4.5,4.5,0,0,0,.61.7l.12.11-7.56,4.41a1.23,1.23,0,1,0,1.25,2.13l9.4-5.49h16a7,7,0,0,1,6.92,6.92v6.92H15L13.6,34.8c-1-1.32-2-3-1.43-3.78l0,0ZM14.73,6.13h0a4.2,4.2,0,0,1,4.16-3.67,4.58,4.58,0,0,1,.53,0,4.2,4.2,0,0,1-.52,8.37,3.27,3.27,0,0,1-.54,0,4.18,4.18,0,0,1-3.63-4.69Zm-3,10.68a2.85,2.85,0,0,1,2.76-3.49h9.2a4.14,4.14,0,0,1,3.74,2.33l1.8,3.59-15.11,8,0-.16Zm58.9,30.72h-3V44.69a1.23,1.23,0,0,0-1.23-1.23H6.67a1.24,1.24,0,0,0-1.24,1.23v2.84h-3V20.12h3V37.9a1.23,1.23,0,0,0,1.24,1.23H66.44a1.2,1.2,0,0,0,.87-.36,1.23,1.23,0,0,0,.36-.87V33.7h3Z"/><path class="cls-1" d="M23.4,31.52l.38-.22a1.25,1.25,0,0,0,.44-1.69,1.27,1.27,0,0,0-.75-.57,1.17,1.17,0,0,0-.32,0,1.26,1.26,0,0,0-.62.17l-.37.22a1.23,1.23,0,0,0,1.24,2.13Z"/></g></g></svg>