<svg xmlns="http://www.w3.org/2000/svg" viewBox="0 0 59.94 60"><defs><style>.cls-1{fill:#78c53c;}</style></defs><g id="Layer_2" data-name="Layer 2"><g id="Design"><path class="cls-1" d="M37.73,9.82,50.17,22.25,36.29,36.14a.86.86,0,0,0,0,1.24.88.88,0,0,0,1.24,0L56.9,18a10.56,10.56,0,0,0,2.63-4.34.88.88,0,0,0-.58-1.1.87.87,0,0,0-1.1.58,8.83,8.83,0,0,1-2.19,3.62l-1.09,1.09L42.14,5.42l1.09-1.09a8.79,8.79,0,0,1,15,5.33.88.88,0,0,0,1.75-.18,10.55,10.55,0,0,0-18-6.4L32.27,12.8a.88.88,0,0,0,0,1.24.86.86,0,0,0,1.24,0Zm15.6,9.27L51.41,21,39,8.58,40.9,6.66Z"/><path class="cls-1" d="M5.62,59l6.46-6.46a25,25,0,0,1,7.82-4.93L29,44.37a11.26,11.26,0,0,0,4.09-2.59l1.69-1.7a.86.86,0,0,0,0-1.24.88.88,0,0,0-1.24,0l-1.69,1.69a9.38,9.38,0,0,1-3.44,2.18C18.88,46.2,19.81,45.64,17.19,47A4,4,0,0,1,13,42.8c1.33-2.62.78-1.68,4.27-11.26a9.32,9.32,0,0,1,2.17-3.44L30.8,16.75a.88.88,0,1,0-1.24-1.24L18.21,26.86A11.05,11.05,0,0,0,15.62,31l-3.27,9.14A25.46,25.46,0,0,1,7.42,47.9C.63,54.7,1,54.37.8,54.55A3.29,3.29,0,0,0,5.62,59ZM11.67,45.2a5.75,5.75,0,0,0,3.12,3.12c-3.62,2.21-4.62,3.83-6.38,5.43L6.24,51.57C8.25,49.48,9.61,48.57,11.67,45.2ZM2.14,57.74a1.6,1.6,0,0,1,.11-2.17L5,52.82,7.17,55l-2.8,2.8a1.54,1.54,0,0,1-2.23,0Z"/><path class="cls-1" d="M26.84,33.14a5.72,5.72,0,0,0,8.08,0L45.19,22.88a.88.88,0,0,0,0-1.25L38.35,14.8a.86.86,0,0,0-1.24,0L26.84,25.06a5.72,5.72,0,0,0,0,8.08ZM43.33,22.25,33.68,31.9a4,4,0,0,1-5.59,0h0a3.94,3.94,0,0,1,0-5.59l9.64-9.65Z"/><path class="cls-1" d="M34.92,26.31l3.42-3.42a.88.88,0,0,0-1.24-1.25l-3.42,3.42a.89.89,0,0,0,0,1.25A.88.88,0,0,0,34.92,26.31Z"/><path class="cls-1" d="M19.76,35.57a3.3,3.3,0,1,0,4.66,0,3.28,3.28,0,0,0-4.66,0Zm3.42,1.24a1.54,1.54,0,1,1-2.18,0,1.55,1.55,0,0,1,2.18,0Z"/></g></g></svg>