<svg xmlns="http://www.w3.org/2000/svg" viewBox="0 0 49.22 60"><defs><style>.cls-1{fill:#78c53c;}</style></defs><g id="Layer_2" data-name="Layer 2"><g id="Design"><path class="cls-1" d="M44,53.85a.88.88,0,1,0,.87.88A.87.87,0,0,0,44,53.85Zm2.63-3.69V45.09a9.08,9.08,0,0,0-1.47-5,.88.88,0,0,0-1.22-.25.87.87,0,0,0-.25,1.22,7.27,7.27,0,0,1,1.18,4v4.44a4.83,4.83,0,0,0-1.75,0V45.09a5.53,5.53,0,0,0-11,0v5.07a7.28,7.28,0,0,1-14.56,0V47.55a2.66,2.66,0,0,0,1.76,0v2.61a5.52,5.52,0,0,0,11,0V45.09A7.29,7.29,0,0,1,41,38.66a.88.88,0,1,0,.83-1.55,9,9,0,0,0-13.28,8v5.07a3.77,3.77,0,1,1-7.53,0v-12A18.35,18.35,0,0,0,36.68,20a2.66,2.66,0,0,0-1.76-2.49V9.08a6.66,6.66,0,0,0-4.86-6.43A3.29,3.29,0,0,0,26.84,0H25.08a3.28,3.28,0,1,0,0,6.56h1.76A3.28,3.28,0,0,0,29.9,4.45a4.9,4.9,0,0,1,3.26,4.63v8.44a2.69,2.69,0,0,0-1.75,2.53A13.07,13.07,0,0,1,10.05,30.1a.88.88,0,1,0-1.12,1.35A14.81,14.81,0,0,0,33.16,20.06a.93.93,0,0,1,.83-.93.89.89,0,0,1,.93.88A16.58,16.58,0,0,1,20.31,36.47a1.24,1.24,0,0,0-1.09,1.22v7.37a.9.9,0,0,1-.92.88.92.92,0,0,1-.84-.93V37.69a1.24,1.24,0,0,0-1.09-1.22A16.58,16.58,0,0,1,1.76,20a.89.89,0,0,1,.93-.88.93.93,0,0,1,.83.93A14.77,14.77,0,0,0,6,28.28a.88.88,0,0,0,1.22.24A.87.87,0,0,0,7.5,27.3a13,13,0,0,1-2.23-7.25,2.69,2.69,0,0,0-1.75-2.53V9.08A4.9,4.9,0,0,1,6.78,4.45,3.28,3.28,0,0,0,9.84,6.56H11.6A3.28,3.28,0,1,0,11.6,0H9.84A3.29,3.29,0,0,0,6.62,2.65,6.66,6.66,0,0,0,1.76,9.08v8.44A2.66,2.66,0,0,0,0,20,18.35,18.35,0,0,0,15.7,38.16v12a9,9,0,0,0,18.08,0V45.09a3.77,3.77,0,1,1,7.53,0v5.07a5.28,5.28,0,1,0,5.27,0ZM26.84,4.8H25.08a1.52,1.52,0,1,1,0-3h1.76a1.52,1.52,0,0,1,0,3Zm-17-3H11.6a1.52,1.52,0,0,1,0,3H9.84a1.52,1.52,0,1,1,0-3ZM44,58.24a3.52,3.52,0,1,1,3.51-3.51A3.52,3.52,0,0,1,44,58.24Z"/></g></g></svg>