<svg xmlns="http://www.w3.org/2000/svg" viewBox="0 0 43.45 60"><defs><style>.cls-1{fill:#78c53c;}</style></defs><g id="Layer_2" data-name="Layer 2"><g id="Design"><path class="cls-1" d="M22,47.08a22.56,22.56,0,0,1-5.72-5.57h2.24a.88.88,0,1,0,0-1.75H15.19A21.66,21.66,0,0,1,13.85,37a17.84,17.84,0,0,1-1.27-5.43.88.88,0,0,0-1.75,0,18.25,18.25,0,0,0,1.06,5.16A33.6,33.6,0,0,0,10.83,42a.88.88,0,0,0,.77,1h.1a.87.87,0,0,0,.87-.77c.07-.55.23-1.66.45-2.76.25.51.54,1,.87,1.59a.6.6,0,0,0,.09.15,22.73,22.73,0,0,0,3,3.88,15.1,15.1,0,0,0,0,3.9.88.88,0,0,0,.86.68.62.62,0,0,0,.19,0,.88.88,0,0,0,.66-1.05,9.16,9.16,0,0,1-.1-1.91A25.72,25.72,0,0,0,21,48.53a.88.88,0,0,0,1-1.45Z"/><path class="cls-1" d="M42.37,37.49c-.11-.66-.22-1.29-.32-1.92-.14-.87-.25-1.57-.33-2.21a19.16,19.16,0,0,1-.19-3.88C42,23.8,40.05,20.23,37.88,18a4.38,4.38,0,0,0-1.3-8.65,32,32,0,0,0-3.91.6,14.24,14.24,0,0,0-2.05-1.92l1-3.47a3.1,3.1,0,1,0-5.93-1.78l-.8,2.67h-.09V3.09a3.1,3.1,0,0,0-6.19,0V5.56l0,0-.84-2.77a3.09,3.09,0,1,0-5.92,1.78l1.25,4.15a15.41,15.41,0,0,0-1.84,2.14c-3.41-.07-6.41,0-7,0a4.39,4.39,0,0,0,.13,8.77h.15l1.31,0A18.88,18.88,0,0,0,2.2,31.4a.92.92,0,0,0,0,.16v.16a18.4,18.4,0,0,0,.38,3.61.89.89,0,0,0,1,.69.88.88,0,0,0,.68-1A16.35,16.35,0,0,1,4,31.72c0-.08,0-.16,0-.24v-.12A17.07,17.07,0,0,1,7.19,20.77C7,21.51,7,22,7,22.07A4.39,4.39,0,0,0,10.73,27a4,4,0,0,0,.59,0,4.4,4.4,0,0,0,4.34-3.8v0h0v0h0v0h0V23h0l0-.07h0l0-.17v-.23l0-.07v-.16l0-.07v-.13l0,0v-.09l0,0,0-.13v-.05l0-.1,0-.06,0-.09,0-.07,0-.08,0-.07,0-.08,0-.08,0-.08,0-.08,0-.09,0-.08,0-.08,0-.09,0-.08,0-.09,0-.1c0-.05,0-.1,0-.16l0-.08,0-.1,0-.06h.09l.13,0,.24,0h.11l.3,0h0l.3,0h.09l.19,0,.1,0,.18,0h.08l.24.05a3.91,3.91,0,0,1,2.34,1.37h0l.06.08.13.18.07.11.06.08a6.59,6.59,0,0,1,.64,1.36,9.62,9.62,0,0,1,.42,1.91,4.42,4.42,0,0,0,4.12,3.83h.82l.13,0,.1,0,.13,0,.1,0,.12,0,.11,0,.12,0,.1,0,.12,0,.09,0,.12-.05.1-.05.11-.06.09,0,.12-.07.08-.05.12-.08.08,0,.11-.08.08-.06.11-.09.07-.06.12-.11.06-.05.16-.17A4.4,4.4,0,0,0,31,24.19q-.11-.8-.27-1.56a19.12,19.12,0,0,1,2.56,3.74c-.14,1.1-1.67,2.86-2.78,3.81a.88.88,0,0,0,.57,1.55.86.86,0,0,0,.57-.21,17,17,0,0,0,1.67-1.7,11.27,11.27,0,0,0,.92-1.24,15.79,15.79,0,0,1,.82,6.5.88.88,0,0,0,.81,1H36a.87.87,0,0,0,.87-.8,17.54,17.54,0,0,0,0-2.51,4.4,4.4,0,0,1,.71.66.87.87,0,0,0,.71.37.86.86,0,0,0,.51-.16A.88.88,0,0,0,39,32.36a12.25,12.25,0,0,0-2.45-2A18.36,18.36,0,0,0,35,25.83l-.06-.12a20.88,20.88,0,0,0-1.51-2.51,21.26,21.26,0,0,0-3-3.37,21.82,21.82,0,0,1,3.83-1.21l.17,0h0l1.13-.22c3.11,2.44,4.55,6.23,4.18,11a20.45,20.45,0,0,0,.2,4.24c.08.66.19,1.38.34,2.28.1.63.21,1.26.32,1.93a48.15,48.15,0,0,1,1,10,.88.88,0,0,0,.84.92h0a.88.88,0,0,0,.88-.84A49.15,49.15,0,0,0,42.37,37.49ZM8.42,16.38h0c0,.09-.06.18-.1.28l0,.11-.09.28,0,.06c-.07.2-.13.41-.2.61H8a1,1,0,0,0,0,.14H7.82c-1.2,0-2.41,0-3.35.06a2.62,2.62,0,0,1-1.88-.71,2.57,2.57,0,0,1-.83-1.84A2.63,2.63,0,0,1,4.3,12.67c.43,0,2.16-.06,4.39-.06h1.45c-.22.38-.43.78-.64,1.2h0c-.07.14-.14.28-.2.42s-.12.26-.18.39l-.06.15A1.89,1.89,0,0,0,9,15l-.08.18-.09.21a1.19,1.19,0,0,1-.08.2c0,.07,0,.13-.07.2Zm27.32.17h-.05a25.19,25.19,0,0,0-6.1,1.73l0,0-.25.11-.07,0-.2.1-.08,0-.2.11-.08,0-.26.15h0l0,0,0,0,0,0,0,0,0,0,0,0,0,0,0,0h0l0,.05v0a.08.08,0,0,0,0,0l0,0,0,.05v0s0,0,0,0a.64.64,0,0,1,0,.07v.13h0v.11s0,0,0,.06v.11L28,20s0,0,0,0v0a13,13,0,0,1,.52,1.35,17.29,17.29,0,0,1,.68,3.06,1.37,1.37,0,0,1,0,.29,2.58,2.58,0,0,1-.69,1.82A2.64,2.64,0,0,1,24,25.07a12,12,0,0,0-.5-2.25,7.85,7.85,0,0,0-1.18-2.25h0l0,0h0l0,0a5.67,5.67,0,0,0-3.33-2l-.26,0h-.06l-.28-.05h0L18,18.33H18l-.32,0h0l-.33,0h-.15l0,0,.15-.34c1.86-3.9,3.81-3.9,4.45-3.9H22a11.21,11.21,0,0,1,1.92,1,.86.86,0,0,0,1,0l.68-.44.14-.08.22-.13.14-.08.26-.14.11-.06.35-.18.16-.08.22-.11.18-.09.23-.1.17-.08.29-.12.11-.05a.87.87,0,0,0,.53-.89,1.22,1.22,0,0,0-.06-.26.88.88,0,0,0-1.15-.47l-.6.26-.09.05c-.2.08-.39.18-.58.27l0,0-.53.27-.08,0-.52.29,0,0a7.88,7.88,0,0,0-2.86-.61h-.36a5.24,5.24,0,0,0-1.78.31c-1.67.6-3.08,2.12-4.25,4.59-.07.14-.13.29-.2.43v0c0,.1-.08.2-.13.3v.06l-.1.24-.06.17v0c0,.12-.09.24-.14.35h0a22.75,22.75,0,0,0-.84,2.86l0,.06,0,.09v0c0,.08,0,.16-.05.23V22c0,.09,0,.17,0,.24l0,.13,0,.1a3,3,0,0,0-.06.33v.06l0,.11v0a2.63,2.63,0,0,1-2.6,2.28,2,2,0,0,1-.35,0,2.63,2.63,0,0,1-2.26-3v0h0A27.49,27.49,0,0,1,9.43,19c.2-.72.42-1.41.67-2.08h0c.06-.16.11-.32.17-.47l0,0,.18-.45,0-.07.15-.36,0-.11c.06-.14.12-.28.19-.42l.18-.38.09-.18a1.74,1.74,0,0,1,.1-.19l.12-.23a.83.83,0,0,1,.07-.13c0-.09.09-.17.13-.25l.06-.1.15-.26.05-.08c.05-.09.1-.18.16-.27l0-.06c.06-.09.11-.19.17-.27l0-.05a2.75,2.75,0,0,1,.19-.28,13.93,13.93,0,0,1,2.24-2.59.88.88,0,0,0,.25-.91l-1.4-4.68a1.27,1.27,0,0,1,.1-1,1.31,1.31,0,0,1,.79-.65,1.34,1.34,0,0,1,1.67.89l1.09,3.62a.89.89,0,0,0,.44.53.92.92,0,0,0,.69,0,11.65,11.65,0,0,1,1.4-.39.88.88,0,0,0,.71-.86V3.09a1.34,1.34,0,0,1,2.68,0V6.21a.86.86,0,0,0,.75.86,14,14,0,0,1,1.46.31.88.88,0,0,0,1.07-.6l1.05-3.47a1.33,1.33,0,0,1,.64-.79,1.3,1.3,0,0,1,1-.1,1.28,1.28,0,0,1,.79.65,1.32,1.32,0,0,1,.11,1L28.75,8.15a.86.86,0,0,0,.35,1,12,12,0,0,1,1.61,1.34h0l-.34.1a.87.87,0,0,0-.6,1.09.79.79,0,0,0,.16.3.88.88,0,0,0,.93.29l.39-.11h0l.82-.21h0l.41-.09a29.84,29.84,0,0,1,4.18-.68,2.63,2.63,0,0,1,.42,5.25C36.8,16.4,36.32,16.46,35.74,16.55Z"/><path class="cls-1" d="M42.36,50a.89.89,0,0,0-1.06.66c-1,4.31-4.06,6.68-9.57,7.47C21.05,59.64,8.58,48.27,5,37.45A.88.88,0,0,0,3.31,38a36.26,36.26,0,0,0,11.34,15.8c5,4,10.25,6.19,15.1,6.19A15,15,0,0,0,32,59.84a14.79,14.79,0,0,0,7.7-3.11A10.47,10.47,0,0,0,43,51,.89.89,0,0,0,42.36,50Z"/></g></g></svg>